#N canvas 183 161 1884 934 10;
#X obj 18 299 matrix_mixer~;
#X obj 19 421 outputs~;
#N canvas 404 434 979 729 audio_files 0;
#X obj 43 274 8_streamers~, f 33;
#X msg 43 43 open audio/bis-02-20-18-part1.wav;
#X msg 70 67 open audio/bis-02-20-18-part1.wav;
#X msg 98 94 open audio/bis-02-20-18-part1.wav;
#X msg 126 118 open audio/bis-02-20-18-part1.wav;
#X msg 154 144 open audio/bis-02-20-18-part1.wav;
#X msg 182 168 open audio/bis-02-20-18-part1.wav;
#X msg 210 195 open audio/bis-02-20-18-part1.wav;
#X msg 238 219 open audio/bis-02-20-18-part1.wav;
#X obj 27 10 loadbang;
#X obj 43 349 throw~ sound_1;
#X obj 69 378 throw~ sound_2;
#X obj 99 406 throw~ sound_3;
#X obj 127 434 throw~ sound_4;
#X obj 155 348 throw~ sound_5;
#X obj 181 377 throw~ sound_6;
#X obj 211 405 throw~ sound_7;
#X obj 239 433 throw~ sound_8;
#X connect 0 0 10 0;
#X connect 0 1 11 0;
#X connect 0 2 12 0;
#X connect 0 3 13 0;
#X connect 0 4 14 0;
#X connect 0 5 15 0;
#X connect 0 6 16 0;
#X connect 0 7 17 0;
#X connect 1 0 0 0;
#X connect 2 0 0 1;
#X connect 3 0 0 2;
#X connect 4 0 0 3;
#X connect 5 0 0 4;
#X connect 6 0 0 5;
#X connect 7 0 0 6;
#X connect 8 0 0 7;
#X connect 9 0 1 0;
#X connect 9 0 2 0;
#X connect 9 0 3 0;
#X connect 9 0 4 0;
#X connect 9 0 5 0;
#X connect 9 0 6 0;
#X connect 9 0 7 0;
#X connect 9 0 8 0;
#X restore 20 49 pd audio_files;
#X obj 21 100 master_volume;
#X obj 189 -26 scene_control;
