#N canvas 544 80 1601 910 10;
#X obj 153 843 outputs~;
#N canvas 565 257 979 729 audio_files 0;
#X obj 43 274 8_streamers~, f 33;
#X obj 43 349 throw~ sound_1;
#X obj 69 378 throw~ sound_2;
#X obj 99 406 throw~ sound_3;
#X obj 127 434 throw~ sound_4;
#X obj 155 348 throw~ sound_5;
#X obj 181 377 throw~ sound_6;
#X obj 211 405 throw~ sound_7;
#X obj 239 433 throw~ sound_8;
#X msg 43 43 open audio/1.wav;
#X msg 70 67 open audio/2.wav;
#X msg 98 94 open audio/3.wav;
#X msg 126 118 open audio/4.wav;
#X msg 154 144 open audio/5.wav;
#X msg 210 640 open audio/5.wav;
#X msg 238 667 open audio/5.wav;
#X msg 266 691 open audio/5.wav;
#X msg 184 168 open audio/6.wav;
#X msg 211 195 open audio/8.wav;
#X msg 238 219 open audio/8.wav;
#X msg 525 60 open audio/9.wav;
#X msg 552 83 open audio/10.wav;
#X msg 581 110 open audio/11.wav;
#X msg 608 135 open audio/12.wav;
#X msg 636 161 open audio/13.wav;
#X msg 664 185 open audio/14.wav;
#X msg 692 212 open audio/15.wav;
#X msg 720 236 open audio/16.wav;
#X obj 525 366 throw~ sound_9;
#X obj 551 395 throw~ sound_10;
#X obj 580 423 throw~ sound_11;
#X obj 609 451 throw~ sound_12;
#X obj 637 365 throw~ sound_13;
#X obj 663 393 throw~ sound_14;
#X obj 693 422 throw~ sound_15;
#X obj 721 450 throw~ sound_16;
#X msg 71 515 open audio/17.wav;
#X msg 98 538 open audio/18.wav;
#X msg 126 566 open audio/19.wav;
#X msg 154 590 open audio/20.wav;
#X msg 181 616 open audio/21.wav;
#X obj 71 821 throw~ sound_17;
#X obj 97 850 throw~ sound_18;
#X obj 127 878 throw~ sound_19;
#X obj 155 906 throw~ sound_20;
#X obj 183 820 throw~ sound_21;
#X obj 209 849 throw~ sound_22;
#X obj 239 877 throw~ sound_23;
#X obj 267 905 throw~ sound_24;
#X obj 525 291 8_streamers~, f 33;
#X obj 71 746 8_streamers~, f 33;
#X obj 27 10 r load_all;
#X obj 509 27 r load_all;
#X obj 55 482 r load_all;
#X connect 0 0 1 0;
#X connect 0 1 2 0;
#X connect 0 2 3 0;
#X connect 0 3 4 0;
#X connect 0 4 5 0;
#X connect 0 5 6 0;
#X connect 0 6 7 0;
#X connect 0 7 8 0;
#X connect 9 0 0 0;
#X connect 10 0 0 1;
#X connect 11 0 0 2;
#X connect 12 0 0 3;
#X connect 13 0 0 4;
#X connect 14 0 50 5;
#X connect 15 0 50 6;
#X connect 16 0 50 7;
#X connect 17 0 0 5;
#X connect 18 0 0 6;
#X connect 19 0 0 7;
#X connect 20 0 49 0;
#X connect 21 0 49 1;
#X connect 22 0 49 2;
#X connect 23 0 49 3;
#X connect 24 0 49 4;
#X connect 25 0 49 5;
#X connect 26 0 49 6;
#X connect 27 0 49 7;
#X connect 36 0 50 0;
#X connect 37 0 50 1;
#X connect 38 0 50 2;
#X connect 39 0 50 3;
#X connect 40 0 50 4;
#X connect 49 0 28 0;
#X connect 49 1 29 0;
#X connect 49 2 30 0;
#X connect 49 3 31 0;
#X connect 49 4 32 0;
#X connect 49 5 33 0;
#X connect 49 6 34 0;
#X connect 49 7 35 0;
#X connect 50 0 41 0;
#X connect 50 1 42 0;
#X connect 50 2 43 0;
#X connect 50 3 44 0;
#X connect 50 4 45 0;
#X connect 50 5 46 0;
#X connect 50 6 47 0;
#X connect 50 7 48 0;
#X connect 51 0 9 0;
#X connect 51 0 10 0;
#X connect 51 0 11 0;
#X connect 51 0 12 0;
#X connect 51 0 13 0;
#X connect 51 0 17 0;
#X connect 51 0 18 0;
#X connect 51 0 19 0;
#X connect 52 0 20 0;
#X connect 52 0 21 0;
#X connect 52 0 22 0;
#X connect 52 0 23 0;
#X connect 52 0 24 0;
#X connect 52 0 25 0;
#X connect 52 0 26 0;
#X connect 52 0 27 0;
#X connect 53 0 36 0;
#X connect 53 0 37 0;
#X connect 53 0 38 0;
#X connect 53 0 39 0;
#X connect 53 0 40 0;
#X connect 53 0 14 0;
#X connect 53 0 15 0;
#X connect 53 0 16 0;
#X restore 20 49 pd audio_files;
#X obj 21 100 master_volume;
#X obj 354 -34 scene_control;
#X obj 19 -34 transport;
#X obj 21 276 matrix_mixer~;
