#N canvas 235 204 1601 910 10;
#X obj 153 843 outputs~;
#N canvas 334 201 979 729 audio_files 1;
#X obj 43 274 8_streamers~, f 33;
#X obj 43 349 throw~ sound_1;
#X obj 69 378 throw~ sound_2;
#X obj 99 406 throw~ sound_3;
#X obj 127 434 throw~ sound_4;
#X obj 155 348 throw~ sound_5;
#X obj 181 377 throw~ sound_6;
#X obj 211 405 throw~ sound_7;
#X obj 239 433 throw~ sound_8;
#X obj 525 366 throw~ sound_9;
#X obj 551 395 throw~ sound_10;
#X obj 580 423 throw~ sound_11;
#X obj 609 451 throw~ sound_12;
#X obj 637 365 throw~ sound_13;
#X obj 663 393 throw~ sound_14;
#X obj 693 422 throw~ sound_15;
#X obj 721 450 throw~ sound_16;
#X obj 71 821 throw~ sound_17;
#X obj 97 850 throw~ sound_18;
#X obj 127 878 throw~ sound_19;
#X obj 155 906 throw~ sound_20;
#X obj 183 820 throw~ sound_21;
#X obj 209 849 throw~ sound_22;
#X obj 239 877 throw~ sound_23;
#X obj 267 905 throw~ sound_24;
#X obj 525 291 8_streamers~, f 33;
#X obj 71 746 8_streamers~, f 33;
#X obj 27 10 r load_all;
#X obj 509 27 r load_all;
#X obj 55 482 r load_all;
#X msg 43 43 audio/1.wav;
#X msg 70 67 audio/2.wav;
#X msg 98 94 audio/3.wav;
#X msg 126 118 audio/4.wav;
#X msg 184 168 audio/6.wav;
#X msg 238 219 audio/8.wav;
#X msg 525 60 audio/9.wav;
#X msg 552 82 audio/10.wav;
#X msg 581 110 audio/11.wav;
#X msg 608 135 audio/12.wav;
#X msg 636 161 audio/13.wav;
#X msg 692 212 audio/15.wav;
#X msg 720 236 audio/16.wav;
#X msg 71 515 audio/17.wav;
#X msg 98 538 audio/18.wav;
#X msg 126 566 audio/19.wav;
#X msg 155 590 audio/20.wav;
#X msg 181 616 audio/21.wav;
#X msg 154 144;
#X msg 664 185;
#X msg 210 640;
#X msg 238 667;
#X msg 266 691;
#X msg 211 195 audio/7.wav;
#X connect 0 0 1 0;
#X connect 0 1 2 0;
#X connect 0 2 3 0;
#X connect 0 3 4 0;
#X connect 0 4 5 0;
#X connect 0 5 6 0;
#X connect 0 6 7 0;
#X connect 0 7 8 0;
#X connect 25 0 9 0;
#X connect 25 1 10 0;
#X connect 25 2 11 0;
#X connect 25 3 12 0;
#X connect 25 4 13 0;
#X connect 25 5 14 0;
#X connect 25 6 15 0;
#X connect 25 7 16 0;
#X connect 26 0 17 0;
#X connect 26 1 18 0;
#X connect 26 2 19 0;
#X connect 26 3 20 0;
#X connect 26 4 21 0;
#X connect 26 5 22 0;
#X connect 26 6 23 0;
#X connect 26 7 24 0;
#X connect 27 0 30 0;
#X connect 27 0 31 0;
#X connect 27 0 32 0;
#X connect 27 0 33 0;
#X connect 27 0 48 0;
#X connect 27 0 34 0;
#X connect 27 0 53 0;
#X connect 27 0 35 0;
#X connect 28 0 36 0;
#X connect 28 0 37 0;
#X connect 28 0 38 0;
#X connect 28 0 49 0;
#X connect 28 0 41 0;
#X connect 28 0 42 0;
#X connect 28 0 39 0;
#X connect 28 0 40 0;
#X connect 29 0 43 0;
#X connect 29 0 45 0;
#X connect 29 0 46 0;
#X connect 29 0 47 0;
#X connect 29 0 50 0;
#X connect 29 0 51 0;
#X connect 29 0 52 0;
#X connect 29 0 44 0;
#X connect 30 0 0 0;
#X connect 31 0 0 1;
#X connect 32 0 0 2;
#X connect 33 0 0 3;
#X connect 34 0 0 5;
#X connect 35 0 0 7;
#X connect 36 0 25 0;
#X connect 37 0 25 1;
#X connect 38 0 25 2;
#X connect 39 0 25 3;
#X connect 40 0 25 4;
#X connect 41 0 25 6;
#X connect 42 0 25 7;
#X connect 43 0 26 0;
#X connect 44 0 26 1;
#X connect 45 0 26 2;
#X connect 46 0 26 3;
#X connect 47 0 26 4;
#X connect 48 0 0 4;
#X connect 49 0 25 5;
#X connect 50 0 26 5;
#X connect 51 0 26 6;
#X connect 52 0 26 7;
#X connect 53 0 0 6;
#X restore 20 49 pd audio_files;
#X obj 21 100 master_volume;
#X obj 354 -34 scene_control;
#X obj 19 -34 transport;
#X obj 21 276 matrix_mixer~;
