#N canvas -20 82 1783 909 10;
#X obj 19 92 catch~ sound_1;
#X obj 31 114 r sound_1_ctl;
#X obj 122 92 catch~ sound_2;
#X obj 128 111 r sound_2_ctl;
#X obj 212 63 catch~ sound_3;
#X obj 218 83 r sound_3_ctl;
#X obj 266 102 catch~ sound_4;
#X obj 272 121 r sound_4_ctl;
#X obj 356 92 catch~ sound_5;
#X obj 368 114 r sound_5_ctl;
#X obj 459 92 catch~ sound_6;
#X obj 465 111 r sound_6_ctl;
#X obj 549 63 catch~ sound_7;
#X obj 555 83 r sound_7_ctl;
#X obj 603 102 catch~ sound_8;
#X obj 609 121 r sound_8_ctl;
#X obj 694 92 catch~ sound_9;
#X obj 706 114 r sound_9_ctl;
#X obj 797 92 catch~ sound_10;
#X obj 803 111 r sound_10_ctl;
#X obj 887 63 catch~ sound_11;
#X obj 893 83 r sound_11_ctl;
#X obj 941 102 catch~ sound_12;
#X obj 947 121 r sound_12_ctl;
#X obj 109 153 gain_control~;
#X obj 25 153 gain_control~;
#X obj 194 153 gain_control~;
#X obj 278 153 gain_control~;
#X obj 362 153 gain_control~;
#X obj 446 153 gain_control~;
#X obj 531 153 gain_control~;
#X obj 615 153 gain_control~;
#X obj 700 153 gain_control~;
#X obj 784 153 gain_control~;
#X obj 869 153 gain_control~;
#X obj 953 153 gain_control~;
#X obj 1037 153 gain_control~;
#X obj 1121 153 gain_control~;
#X obj 1206 153 gain_control~;
#X obj 1290 153 gain_control~;
#X obj 1375 152 gain_control~;
#X obj 1459 152 gain_control~;
#X obj 1544 152 gain_control~;
#X obj 1628 152 gain_control~;
#X obj 1712 152 gain_control~;
#X obj 1796 152 gain_control~;
#X obj 1881 152 gain_control~;
#X obj 1965 152 gain_control~;
#X obj 1706 91 catch~ sound_21;
#X obj 1718 113 r sound_21_ctl;
#X obj 1809 91 catch~ sound_22;
#X obj 1815 110 r sound_22_ctl;
#X obj 1899 62 catch~ sound_23;
#X obj 1905 82 r sound_23_ctl;
#X obj 1953 101 catch~ sound_24;
#X obj 1959 120 r sound_24_ctl;
#X obj 1369 91 catch~ sound_17;
#X obj 1381 113 r sound_17_ctl;
#X obj 1472 91 catch~ sound_18;
#X obj 1478 110 r sound_18_ctl;
#X obj 1562 62 catch~ sound_19;
#X obj 1568 82 r sound_19_ctl;
#X obj 1616 101 catch~ sound_20;
#X obj 1622 120 r sound_20_ctl;
#X obj 1031 92 catch~ sound_13;
#X obj 1043 114 r sound_13_ctl;
#X obj 1134 92 catch~ sound_14;
#X obj 1140 111 r sound_14_ctl;
#X obj 1224 63 catch~ sound_15;
#X obj 1230 83 r sound_15_ctl;
#X obj 1278 102 catch~ sound_16;
#X obj 1284 121 r sound_16_ctl;
#X connect 0 0 25 0;
#X connect 1 0 25 1;
#X connect 2 0 24 0;
#X connect 3 0 24 1;
#X connect 4 0 26 0;
#X connect 5 0 26 1;
#X connect 6 0 27 0;
#X connect 7 0 27 1;
#X connect 8 0 28 0;
#X connect 9 0 28 1;
#X connect 10 0 29 0;
#X connect 11 0 29 1;
#X connect 12 0 30 0;
#X connect 13 0 30 1;
#X connect 14 0 31 0;
#X connect 15 0 31 1;
#X connect 16 0 32 0;
#X connect 17 0 32 1;
#X connect 18 0 33 0;
#X connect 19 0 33 1;
#X connect 20 0 34 0;
#X connect 21 0 34 1;
#X connect 22 0 35 0;
#X connect 23 0 35 1;
#X connect 48 0 44 0;
#X connect 49 0 44 1;
#X connect 50 0 45 0;
#X connect 51 0 45 1;
#X connect 52 0 46 0;
#X connect 53 0 46 1;
#X connect 54 0 47 0;
#X connect 55 0 47 1;
#X connect 56 0 40 0;
#X connect 57 0 40 1;
#X connect 58 0 41 0;
#X connect 59 0 41 1;
#X connect 60 0 42 0;
#X connect 61 0 42 1;
#X connect 62 0 43 0;
#X connect 63 0 43 1;
#X connect 64 0 36 0;
#X connect 65 0 36 1;
#X connect 66 0 37 0;
#X connect 67 0 37 1;
#X connect 68 0 38 0;
#X connect 69 0 38 1;
#X connect 70 0 39 0;
#X connect 71 0 39 1;
#X coords 0 909 1 908 2000 530 0;
