#N canvas 20 578 504 405 10;
#X obj 66 184 *~;
#X obj 67 29 inlet~;
#X obj 152 166 dbtorms;
#X obj 152 29 inlet;
#X floatatom 152 145 5 0 0 0 - - -, f 5;
#X floatatom 152 195 10 0 0 0 - - -, f 10;
#X obj 152 122 + 100;
#X floatatom 152 104 5 0 0 0 - - -, f 5;
#X text 261 130 works well with input ranged -99 to 18;
#X obj 233 30 vsl 15 128 -99 18 0 0 empty empty empty 0 -9 0 10 -262144
-1 -1 10746 1;
#X obj 86 155 line~;
#X text 60 -15 output_atage designed for use with clone;
#X text 61 0 jmej // parallel studios // 2018;
#X obj 114 271 f \$1;
#X obj 67 373 throw~;
#X obj 114 322 makefilename output_%d;
#X msg 113 344 set \$1;
#X obj 114 245 loadbang;
#X obj 114 294 + 1;
#X obj 274 74 r interp_speed;
#X text 273 47 globally change the fade time;
#X obj 152 64 pack f f;
#X floatatom 274 101 5 0 0 0 - - -, f 5;
#X msg 86 131 \$1 50;
#X obj 152 85 line;
#X connect 0 0 14 0;
#X connect 1 0 0 0;
#X connect 2 0 5 0;
#X connect 2 0 23 0;
#X connect 3 0 9 0;
#X connect 3 0 21 0;
#X connect 4 0 2 0;
#X connect 6 0 4 0;
#X connect 7 0 6 0;
#X connect 10 0 0 1;
#X connect 13 0 18 0;
#X connect 15 0 16 0;
#X connect 16 0 14 0;
#X connect 17 0 13 0;
#X connect 18 0 15 0;
#X connect 19 0 21 1;
#X connect 19 0 22 0;
#X connect 21 0 24 0;
#X connect 23 0 10 0;
#X connect 24 0 7 0;
