#N canvas 983 58 668 376 10;
#N canvas 43 500 1858 843 scene_1 0;
#X text 38 112 sound 1;
#X text 355 26 open subpatches to edit scene;
#X obj 39 460 s sound_1_ctl;
#X obj 233 460 s sound_2_ctl;
#X text 232 109 sound 2;
#X obj 809 21 bng 15 250 50 0 empty empty empty 17 7 0 10 -262144 -1
-1;
#X text 426 112 sound 3;
#X text 621 109 sound 4;
#X obj 427 458 s sound_3_ctl;
#X obj 621 456 s sound_4_ctl;
#X text 813 109 sound 5;
#X text 1007 106 sound 6;
#X obj 815 458 s sound_5_ctl;
#X obj 1009 457 s sound_6_ctl;
#X text 1189 109 sound 7;
#X text 1383 106 sound 8;
#X obj 1194 457 s sound_7_ctl;
#X obj 1388 457 s sound_8_ctl;
#X obj 89 65 s interp_speed;
#X msg 89 34 2000;
#X obj 809 -20 t b b;
#X obj 20 18 bng 30 250 50 0 empty empty empty 17 7 0 10 -203904 -1
-1;
#N canvas 948 254 749 623 sound_levels 0;
#X text 21 44 1;
#X text 63 44 2;
#X text 102 44 3;
#X text 144 43 4;
#X msg 264 87 2 \$1;
#X msg 320 87 3 \$1;
#X msg 375 88 4 \$1;
#X obj 212 -22 inlet;
#X msg 209 86 1 \$1;
#X floatatom 18 64 5 0 0 0 - - -, f 5;
#X floatatom 60 64 5 0 0 0 - - -, f 5;
#X floatatom 100 64 5 0 0 0 - - -, f 5;
#X floatatom 142 63 5 0 0 0 - - -, f 5;
#X obj 176 599 outlet;
#X msg 219 22 set \$1;
#X msg 205 51 0;
#X msg 280 23 set \$1;
#X msg 266 52 0;
#X msg 345 23 set \$1;
#X msg 331 52 -99;
#X msg 406 24 set \$1;
#X msg 392 53 -99;
#X floatatom 19 103 5 0 0 0 - - -, f 5;
#X floatatom 61 103 5 0 0 0 - - -, f 5;
#X floatatom 101 103 5 0 0 0 - - -, f 5;
#X floatatom 143 102 5 0 0 0 - - -, f 5;
#X msg 212 124 set \$1;
#X msg 198 153 -99;
#X msg 273 125 set \$1;
#X msg 259 154 -99;
#X msg 338 125 set \$1;
#X msg 324 154 -99;
#X msg 399 126 set \$1;
#X msg 385 155 -99;
#X msg 202 188 5 \$1;
#X msg 257 189 6 \$1;
#X msg 313 189 7 \$1;
#X msg 368 190 8 \$1;
#X text 22 83 5;
#X text 64 83 6;
#X text 103 83 7;
#X text 145 82 8;
#X floatatom 19 146 5 0 0 0 - - -, f 5;
#X floatatom 61 146 5 0 0 0 - - -, f 5;
#X floatatom 101 146 5 0 0 0 - - -, f 5;
#X floatatom 143 145 5 0 0 0 - - -, f 5;
#X msg 229 233 set \$1;
#X msg 215 262 -99;
#X msg 290 234 set \$1;
#X msg 276 263 -99;
#X msg 355 234 set \$1;
#X msg 341 263 -99;
#X msg 416 235 set \$1;
#X msg 402 264 -99;
#X floatatom 19 187 5 0 0 0 - - -, f 5;
#X floatatom 61 187 5 0 0 0 - - -, f 5;
#X floatatom 101 187 5 0 0 0 - - -, f 5;
#X floatatom 143 186 5 0 0 0 - - -, f 5;
#X msg 222 335 set \$1;
#X msg 208 364 -99;
#X msg 283 336 set \$1;
#X msg 269 365 -99;
#X msg 348 336 set \$1;
#X msg 334 365 -99;
#X msg 409 337 set \$1;
#X msg 395 366 -99;
#X text 22 126 9;
#X text 64 126 10;
#X text 103 126 11;
#X text 145 125 12;
#X text 22 167 13;
#X text 64 167 14;
#X text 103 167 15;
#X text 145 166 16;
#X msg 219 297 9 \$1;
#X msg 274 298 10 \$1;
#X msg 385 299 12 \$1;
#X msg 212 399 13 \$1;
#X msg 267 400 14 \$1;
#X msg 323 400 15 \$1;
#X msg 378 401 16 \$1;
#X floatatom 19 233 5 0 0 0 - - -, f 5;
#X floatatom 61 233 5 0 0 0 - - -, f 5;
#X floatatom 101 233 5 0 0 0 - - -, f 5;
#X floatatom 143 232 5 0 0 0 - - -, f 5;
#X msg 363 447 set \$1;
#X msg 349 476 -99;
#X msg 424 448 set \$1;
#X msg 410 477 -99;
#X msg 489 448 set \$1;
#X msg 475 477 -99;
#X msg 550 449 set \$1;
#X msg 536 478 -99;
#X floatatom 20 274 5 0 0 0 - - -, f 5;
#X floatatom 62 274 5 0 0 0 - - -, f 5;
#X floatatom 102 274 5 0 0 0 - - -, f 5;
#X floatatom 144 273 5 0 0 0 - - -, f 5;
#X msg 356 549 set \$1;
#X msg 342 578 -99;
#X msg 417 550 set \$1;
#X msg 403 579 -99;
#X msg 482 550 set \$1;
#X msg 468 579 -99;
#X msg 543 551 set \$1;
#X msg 529 580 -99;
#X text 22 213 17;
#X text 64 213 18;
#X text 103 213 19;
#X text 145 212 20;
#X text 23 254 21;
#X text 65 254 22;
#X text 104 254 23;
#X text 146 253 24;
#X msg 353 511 17 \$1;
#X msg 408 512 18 \$1;
#X msg 464 512 19 \$1;
#X msg 519 514 20 \$1;
#X msg 346 613 21 \$1;
#X msg 401 614 22 \$1;
#X msg 457 614 23 \$1;
#X msg 512 615 24 \$1;
#X msg 333 299 11 \$1;
#X connect 4 0 13 0;
#X connect 5 0 13 0;
#X connect 6 0 13 0;
#X connect 7 0 15 0;
#X connect 7 0 17 0;
#X connect 7 0 19 0;
#X connect 7 0 21 0;
#X connect 7 0 27 0;
#X connect 7 0 29 0;
#X connect 7 0 31 0;
#X connect 7 0 33 0;
#X connect 7 0 47 0;
#X connect 7 0 49 0;
#X connect 7 0 51 0;
#X connect 7 0 53 0;
#X connect 7 0 59 0;
#X connect 7 0 61 0;
#X connect 7 0 63 0;
#X connect 7 0 65 0;
#X connect 7 0 86 0;
#X connect 7 0 88 0;
#X connect 7 0 90 0;
#X connect 7 0 92 0;
#X connect 7 0 98 0;
#X connect 7 0 100 0;
#X connect 7 0 102 0;
#X connect 7 0 104 0;
#X connect 8 0 13 0;
#X connect 9 0 8 0;
#X connect 9 0 14 0;
#X connect 10 0 4 0;
#X connect 10 0 16 0;
#X connect 11 0 5 0;
#X connect 11 0 18 0;
#X connect 12 0 6 0;
#X connect 12 0 20 0;
#X connect 14 0 15 0;
#X connect 15 0 9 0;
#X connect 16 0 17 0;
#X connect 17 0 10 0;
#X connect 18 0 19 0;
#X connect 19 0 11 0;
#X connect 20 0 21 0;
#X connect 21 0 12 0;
#X connect 22 0 34 0;
#X connect 22 0 26 0;
#X connect 23 0 35 0;
#X connect 23 0 28 0;
#X connect 24 0 36 0;
#X connect 24 0 30 0;
#X connect 25 0 37 0;
#X connect 25 0 32 0;
#X connect 26 0 27 0;
#X connect 27 0 22 0;
#X connect 28 0 29 0;
#X connect 29 0 23 0;
#X connect 30 0 31 0;
#X connect 31 0 24 0;
#X connect 32 0 33 0;
#X connect 33 0 25 0;
#X connect 34 0 13 0;
#X connect 35 0 13 0;
#X connect 36 0 13 0;
#X connect 37 0 13 0;
#X connect 42 0 74 0;
#X connect 42 0 46 0;
#X connect 43 0 75 0;
#X connect 43 0 48 0;
#X connect 44 0 121 0;
#X connect 44 0 50 0;
#X connect 45 0 76 0;
#X connect 45 0 52 0;
#X connect 46 0 47 0;
#X connect 47 0 42 0;
#X connect 48 0 49 0;
#X connect 49 0 43 0;
#X connect 50 0 51 0;
#X connect 51 0 44 0;
#X connect 52 0 53 0;
#X connect 53 0 45 0;
#X connect 54 0 77 0;
#X connect 54 0 58 0;
#X connect 55 0 78 0;
#X connect 55 0 60 0;
#X connect 56 0 79 0;
#X connect 56 0 62 0;
#X connect 57 0 80 0;
#X connect 57 0 64 0;
#X connect 58 0 59 0;
#X connect 59 0 54 0;
#X connect 60 0 61 0;
#X connect 61 0 55 0;
#X connect 62 0 63 0;
#X connect 63 0 56 0;
#X connect 64 0 65 0;
#X connect 65 0 57 0;
#X connect 74 0 13 0;
#X connect 75 0 13 0;
#X connect 76 0 13 0;
#X connect 77 0 13 0;
#X connect 78 0 13 0;
#X connect 79 0 13 0;
#X connect 80 0 13 0;
#X connect 81 0 113 0;
#X connect 81 0 85 0;
#X connect 82 0 114 0;
#X connect 82 0 87 0;
#X connect 83 0 115 0;
#X connect 83 0 89 0;
#X connect 84 0 116 0;
#X connect 84 0 91 0;
#X connect 85 0 86 0;
#X connect 86 0 81 0;
#X connect 87 0 88 0;
#X connect 88 0 82 0;
#X connect 89 0 90 0;
#X connect 90 0 83 0;
#X connect 91 0 92 0;
#X connect 92 0 84 0;
#X connect 93 0 117 0;
#X connect 93 0 97 0;
#X connect 94 0 118 0;
#X connect 94 0 99 0;
#X connect 95 0 119 0;
#X connect 95 0 101 0;
#X connect 96 0 120 0;
#X connect 96 0 103 0;
#X connect 97 0 98 0;
#X connect 98 0 93 0;
#X connect 99 0 100 0;
#X connect 100 0 94 0;
#X connect 101 0 102 0;
#X connect 102 0 95 0;
#X connect 103 0 104 0;
#X connect 104 0 96 0;
#X connect 113 0 13 0;
#X connect 114 0 13 0;
#X connect 115 0 13 0;
#X connect 116 0 13 0;
#X connect 117 0 13 0;
#X connect 118 0 13 0;
#X connect 119 0 13 0;
#X connect 120 0 13 0;
#X connect 121 0 13 0;
#X coords 0 -1 1 1 170 300 1 10 25;
#X restore 39 143 pd sound_levels;
#X obj 796 491 bng 15 250 50 0 empty empty empty 17 7 0 10 -262144
-1 -1;
#X text 33 513 sound 9;
#X text 227 510 sound 10;
#X text 421 513 sound 11;
#X text 616 510 sound 12;
#X text 808 510 sound 13;
#X text 1002 507 sound 14;
#X text 1184 510 sound 15;
#X text 1378 507 sound 16;
#X obj 34 861 s sound_9_ctl;
#X obj 228 861 s sound_10_ctl;
#X obj 422 859 s sound_11_ctl;
#X obj 616 857 s sound_12_ctl;
#X obj 810 859 s sound_13_ctl;
#X obj 1004 858 s sound_14_ctl;
#X obj 1189 858 s sound_15_ctl;
#X obj 1383 858 s sound_16_ctl;
#X obj 794 887 bng 15 250 50 0 empty empty empty 17 7 0 10 -262144
-1 -1;
#X text 31 909 sound 17;
#X text 225 906 sound 18;
#X text 419 909 sound 19;
#X text 614 906 sound 20;
#X text 806 906 sound 21;
#X text 1000 903 sound 22;
#X text 1182 906 sound 23;
#X text 1376 903 sound 24;
#X obj 32 1257 s sound_17_ctl;
#X obj 226 1257 s sound_18_ctl;
#X obj 420 1255 s sound_19_ctl;
#X obj 614 1253 s sound_20_ctl;
#X obj 808 1255 s sound_21_ctl;
#X obj 1002 1254 s sound_22_ctl;
#X obj 1187 1254 s sound_23_ctl;
#X obj 1381 1254 s sound_24_ctl;
#X connect 5 0 22 0;
#X connect 5 0 23 0;
#X connect 19 0 18 0;
#X connect 20 0 5 0;
#X connect 20 1 19 0;
#X connect 21 0 20 0;
#X connect 22 0 2 0;
#X connect 23 0 40 0;
#X coords 0 -1 1 1 85 60 1 0 0;
#X restore 161 255 pd scene_1;
#X obj 108 59 hradio 40 1 0 2 empty empty empty 0 -8 0 30 -232576 -1
-1 1;
#X text 107 105 silence;
#X obj 22 14 r start;
#X msg 22 40 1;
#X obj 252 155 bng 15 250 50 0 empty empty empty 17 7 0 10 -262144
-1 -1;
#X text 163 37 1;
#X obj 120 137 select 0 1;
#X obj 42 154 bng 15 250 50 0 empty empty empty 17 7 0 10 -262144 -1
-1;
#N canvas -23 460 1858 843 silence 1;
#X text 38 112 sound 1;
#X text 355 26 open subpatches to edit scene;
#X obj 39 460 s sound_1_ctl;
#X obj 233 460 s sound_2_ctl;
#X text 232 109 sound 2;
#X obj 809 21 bng 15 250 50 0 empty empty empty 17 7 0 10 -262144 -1
-1;
#X text 426 112 sound 3;
#X text 621 109 sound 4;
#X obj 427 458 s sound_3_ctl;
#X obj 621 456 s sound_4_ctl;
#X text 813 109 sound 5;
#X text 1007 106 sound 6;
#X obj 815 458 s sound_5_ctl;
#X obj 1009 457 s sound_6_ctl;
#X text 1189 109 sound 7;
#X text 1383 106 sound 8;
#X obj 1194 457 s sound_7_ctl;
#X obj 1388 457 s sound_8_ctl;
#X obj 89 65 s interp_speed;
#X msg 89 34 2000;
#X obj 803 -45 t b b;
#X obj 26 24 bng 30 250 50 0 empty empty empty 17 7 0 10 -232576 -1
-1;
#N canvas 948 254 749 623 sound_levels 0;
#X text 21 44 1;
#X text 63 44 2;
#X text 102 44 3;
#X text 144 43 4;
#X msg 264 87 2 \$1;
#X msg 320 87 3 \$1;
#X msg 375 88 4 \$1;
#X obj 212 -22 inlet;
#X msg 209 86 1 \$1;
#X floatatom 18 64 5 0 0 0 - - -, f 5;
#X floatatom 60 64 5 0 0 0 - - -, f 5;
#X floatatom 100 64 5 0 0 0 - - -, f 5;
#X floatatom 142 63 5 0 0 0 - - -, f 5;
#X obj 176 599 outlet;
#X msg 219 22 set \$1;
#X msg 205 51 -99;
#X msg 280 23 set \$1;
#X msg 266 52 -99;
#X msg 345 23 set \$1;
#X msg 331 52 -99;
#X msg 406 24 set \$1;
#X msg 392 53 -99;
#X floatatom 19 103 5 0 0 0 - - -, f 5;
#X floatatom 61 103 5 0 0 0 - - -, f 5;
#X floatatom 101 103 5 0 0 0 - - -, f 5;
#X floatatom 143 102 5 0 0 0 - - -, f 5;
#X msg 212 124 set \$1;
#X msg 198 153 -99;
#X msg 273 125 set \$1;
#X msg 259 154 -99;
#X msg 338 125 set \$1;
#X msg 324 154 -99;
#X msg 399 126 set \$1;
#X msg 385 155 -99;
#X msg 202 188 5 \$1;
#X msg 257 189 6 \$1;
#X msg 313 189 7 \$1;
#X msg 368 190 8 \$1;
#X text 22 83 5;
#X text 64 83 6;
#X text 103 83 7;
#X text 145 82 8;
#X floatatom 19 146 5 0 0 0 - - -, f 5;
#X floatatom 61 146 5 0 0 0 - - -, f 5;
#X floatatom 101 146 5 0 0 0 - - -, f 5;
#X floatatom 143 145 5 0 0 0 - - -, f 5;
#X msg 229 233 set \$1;
#X msg 215 262 -99;
#X msg 290 234 set \$1;
#X msg 276 263 -99;
#X msg 355 234 set \$1;
#X msg 341 263 -99;
#X msg 416 235 set \$1;
#X msg 402 264 -99;
#X floatatom 19 187 5 0 0 0 - - -, f 5;
#X floatatom 61 187 5 0 0 0 - - -, f 5;
#X floatatom 101 187 5 0 0 0 - - -, f 5;
#X floatatom 143 186 5 0 0 0 - - -, f 5;
#X msg 222 335 set \$1;
#X msg 208 364 -99;
#X msg 283 336 set \$1;
#X msg 269 365 -99;
#X msg 348 336 set \$1;
#X msg 334 365 -99;
#X msg 409 337 set \$1;
#X msg 395 366 -99;
#X text 22 126 9;
#X text 64 126 10;
#X text 103 126 11;
#X text 145 125 12;
#X text 22 167 13;
#X text 64 167 14;
#X text 103 167 15;
#X text 145 166 16;
#X msg 219 297 9 \$1;
#X msg 274 298 10 \$1;
#X msg 385 299 12 \$1;
#X msg 212 399 13 \$1;
#X msg 267 400 14 \$1;
#X msg 323 400 15 \$1;
#X msg 378 401 16 \$1;
#X floatatom 19 233 5 0 0 0 - - -, f 5;
#X floatatom 61 233 5 0 0 0 - - -, f 5;
#X floatatom 101 233 5 0 0 0 - - -, f 5;
#X floatatom 143 232 5 0 0 0 - - -, f 5;
#X msg 363 447 set \$1;
#X msg 349 476 -99;
#X msg 424 448 set \$1;
#X msg 410 477 -99;
#X msg 489 448 set \$1;
#X msg 475 477 -99;
#X msg 550 449 set \$1;
#X msg 536 478 -99;
#X floatatom 20 274 5 0 0 0 - - -, f 5;
#X floatatom 62 274 5 0 0 0 - - -, f 5;
#X floatatom 102 274 5 0 0 0 - - -, f 5;
#X floatatom 144 273 5 0 0 0 - - -, f 5;
#X msg 356 549 set \$1;
#X msg 342 578 -99;
#X msg 417 550 set \$1;
#X msg 403 579 -99;
#X msg 482 550 set \$1;
#X msg 468 579 -99;
#X msg 543 551 set \$1;
#X msg 529 580 -99;
#X text 22 213 17;
#X text 64 213 18;
#X text 103 213 19;
#X text 145 212 20;
#X text 23 254 21;
#X text 65 254 22;
#X text 104 254 23;
#X text 146 253 24;
#X msg 353 511 17 \$1;
#X msg 408 512 18 \$1;
#X msg 464 512 19 \$1;
#X msg 519 514 20 \$1;
#X msg 346 613 21 \$1;
#X msg 401 614 22 \$1;
#X msg 457 614 23 \$1;
#X msg 512 615 24 \$1;
#X msg 333 299 11 \$1;
#X connect 4 0 13 0;
#X connect 5 0 13 0;
#X connect 6 0 13 0;
#X connect 7 0 15 0;
#X connect 7 0 17 0;
#X connect 7 0 19 0;
#X connect 7 0 21 0;
#X connect 7 0 27 0;
#X connect 7 0 29 0;
#X connect 7 0 31 0;
#X connect 7 0 33 0;
#X connect 7 0 47 0;
#X connect 7 0 49 0;
#X connect 7 0 51 0;
#X connect 7 0 53 0;
#X connect 7 0 59 0;
#X connect 7 0 61 0;
#X connect 7 0 63 0;
#X connect 7 0 65 0;
#X connect 7 0 86 0;
#X connect 7 0 88 0;
#X connect 7 0 90 0;
#X connect 7 0 92 0;
#X connect 7 0 98 0;
#X connect 7 0 100 0;
#X connect 7 0 102 0;
#X connect 7 0 104 0;
#X connect 8 0 13 0;
#X connect 9 0 8 0;
#X connect 9 0 14 0;
#X connect 10 0 4 0;
#X connect 10 0 16 0;
#X connect 11 0 5 0;
#X connect 11 0 18 0;
#X connect 12 0 6 0;
#X connect 12 0 20 0;
#X connect 14 0 15 0;
#X connect 15 0 9 0;
#X connect 16 0 17 0;
#X connect 17 0 10 0;
#X connect 18 0 19 0;
#X connect 19 0 11 0;
#X connect 20 0 21 0;
#X connect 21 0 12 0;
#X connect 22 0 34 0;
#X connect 22 0 26 0;
#X connect 23 0 35 0;
#X connect 23 0 28 0;
#X connect 24 0 36 0;
#X connect 24 0 30 0;
#X connect 25 0 37 0;
#X connect 25 0 32 0;
#X connect 26 0 27 0;
#X connect 27 0 22 0;
#X connect 28 0 29 0;
#X connect 29 0 23 0;
#X connect 30 0 31 0;
#X connect 31 0 24 0;
#X connect 32 0 33 0;
#X connect 33 0 25 0;
#X connect 34 0 13 0;
#X connect 35 0 13 0;
#X connect 36 0 13 0;
#X connect 37 0 13 0;
#X connect 42 0 74 0;
#X connect 42 0 46 0;
#X connect 43 0 75 0;
#X connect 43 0 48 0;
#X connect 44 0 121 0;
#X connect 44 0 50 0;
#X connect 45 0 76 0;
#X connect 45 0 52 0;
#X connect 46 0 47 0;
#X connect 47 0 42 0;
#X connect 48 0 49 0;
#X connect 49 0 43 0;
#X connect 50 0 51 0;
#X connect 51 0 44 0;
#X connect 52 0 53 0;
#X connect 53 0 45 0;
#X connect 54 0 77 0;
#X connect 54 0 58 0;
#X connect 55 0 78 0;
#X connect 55 0 60 0;
#X connect 56 0 79 0;
#X connect 56 0 62 0;
#X connect 57 0 80 0;
#X connect 57 0 64 0;
#X connect 58 0 59 0;
#X connect 59 0 54 0;
#X connect 60 0 61 0;
#X connect 61 0 55 0;
#X connect 62 0 63 0;
#X connect 63 0 56 0;
#X connect 64 0 65 0;
#X connect 65 0 57 0;
#X connect 74 0 13 0;
#X connect 75 0 13 0;
#X connect 76 0 13 0;
#X connect 77 0 13 0;
#X connect 78 0 13 0;
#X connect 79 0 13 0;
#X connect 80 0 13 0;
#X connect 81 0 113 0;
#X connect 81 0 85 0;
#X connect 82 0 114 0;
#X connect 82 0 87 0;
#X connect 83 0 115 0;
#X connect 83 0 89 0;
#X connect 84 0 116 0;
#X connect 84 0 91 0;
#X connect 85 0 86 0;
#X connect 86 0 81 0;
#X connect 87 0 88 0;
#X connect 88 0 82 0;
#X connect 89 0 90 0;
#X connect 90 0 83 0;
#X connect 91 0 92 0;
#X connect 92 0 84 0;
#X connect 93 0 117 0;
#X connect 93 0 97 0;
#X connect 94 0 118 0;
#X connect 94 0 99 0;
#X connect 95 0 119 0;
#X connect 95 0 101 0;
#X connect 96 0 120 0;
#X connect 96 0 103 0;
#X connect 97 0 98 0;
#X connect 98 0 93 0;
#X connect 99 0 100 0;
#X connect 100 0 94 0;
#X connect 101 0 102 0;
#X connect 102 0 95 0;
#X connect 103 0 104 0;
#X connect 104 0 96 0;
#X connect 113 0 13 0;
#X connect 114 0 13 0;
#X connect 115 0 13 0;
#X connect 116 0 13 0;
#X connect 117 0 13 0;
#X connect 118 0 13 0;
#X connect 119 0 13 0;
#X connect 120 0 13 0;
#X connect 121 0 13 0;
#X coords 0 -1 1 1 170 300 1 10 25;
#X restore 39 143 pd sound_levels;
#X obj 796 491 bng 15 250 50 0 empty empty empty 17 7 0 10 -262144
-1 -1;
#X text 33 513 sound 9;
#X text 227 510 sound 10;
#X text 421 513 sound 11;
#X text 616 510 sound 12;
#X text 808 510 sound 13;
#X text 1002 507 sound 14;
#X text 1184 510 sound 15;
#X text 1378 507 sound 16;
#X obj 34 861 s sound_9_ctl;
#X obj 228 861 s sound_10_ctl;
#X obj 422 859 s sound_11_ctl;
#X obj 616 857 s sound_12_ctl;
#X obj 810 859 s sound_13_ctl;
#X obj 1004 858 s sound_14_ctl;
#X obj 1189 858 s sound_15_ctl;
#X obj 1383 858 s sound_16_ctl;
#X obj 794 887 bng 15 250 50 0 empty empty empty 17 7 0 10 -262144
-1 -1;
#X text 31 909 sound 17;
#X text 225 906 sound 18;
#X text 419 909 sound 19;
#X text 614 906 sound 20;
#X text 806 906 sound 21;
#X text 1000 903 sound 22;
#X text 1182 906 sound 23;
#X text 1376 903 sound 24;
#X obj 32 1257 s sound_17_ctl;
#X obj 226 1257 s sound_18_ctl;
#X obj 420 1255 s sound_19_ctl;
#X obj 614 1253 s sound_20_ctl;
#X obj 808 1255 s sound_21_ctl;
#X obj 1002 1254 s sound_22_ctl;
#X obj 1187 1254 s sound_23_ctl;
#X obj 1381 1254 s sound_24_ctl;
#X connect 5 0 22 0;
#X connect 5 0 23 0;
#X connect 19 0 18 0;
#X connect 20 0 5 0;
#X connect 20 1 19 0;
#X connect 21 0 20 0;
#X connect 22 0 2 0;
#X connect 23 0 40 0;
#X coords 0 -1 1 1 85 60 1 0 0;
#X restore 53 253 pd silence;
#X connect 1 0 7 0;
#X connect 3 0 4 0;
#X connect 4 0 1 0;
#X coords 0 -1 1 1 200 110 1 80 15;
