#N canvas 863 329 672 566 10;
#X obj 258 260 readsf~;
#X obj 89 120 inlet;
#X msg 232 204 1;
#X obj 259 340 outlet~;
#X obj 291 162 r start_all;
#X obj 374 163 r stop_all;
#X msg 269 204 0;
#X obj 297 301 t b b;
#X obj 89 159 list prepend set open;
#X obj 89 185 list trim;
#X obj 89 208 t b a;
#X msg 88 234;
#X text 138 119 inlet expects an audio path like audio/blah.foo;
#X text 252 42 looping audio disk streamer;
#X text 252 55 jmej // parallel studio // 2018;
#X connect 0 0 3 0;
#X connect 0 1 7 0;
#X connect 1 0 8 0;
#X connect 2 0 0 0;
#X connect 4 0 2 0;
#X connect 5 0 6 0;
#X connect 6 0 0 0;
#X connect 7 0 2 0;
#X connect 7 1 11 0;
#X connect 8 0 9 0;
#X connect 9 0 10 0;
#X connect 10 0 11 0;
#X connect 10 1 11 0;
#X connect 11 0 0 0;
