#N canvas 863 329 450 300 10;
#X obj 118 170 readsf~;
#X obj 92 22 inlet;
#X msg 92 114 1;
#X obj 117 201 outlet~;
#X obj 92 74 t b a;
#X connect 0 0 3 0;
#X connect 0 1 2 0;
#X connect 1 0 4 0;
#X connect 2 0 0 0;
#X connect 4 0 2 0;
#X connect 4 1 0 0;
