#N canvas 863 329 450 300 10;
#X obj 118 170 readsf~;
#X obj 117 38 inlet;
#X msg 92 114 1;
#X obj 117 201 outlet~;
#X obj 151 72 r start_all;
#X obj 234 73 r stop_all;
#X msg 129 114 0;
#X connect 0 0 3 0;
#X connect 0 1 2 0;
#X connect 1 0 0 0;
#X connect 2 0 0 0;
#X connect 4 0 2 0;
#X connect 5 0 6 0;
#X connect 6 0 0 0;
