#N canvas 395 223 695 300 10;
#X obj 7 121 streamer~;
#X obj 7 87 inlet;
#X obj 6 154 outlet~;
#X obj 80 86 inlet;
#X obj 79 153 outlet~;
#X obj 150 86 inlet;
#X obj 149 153 outlet~;
#X obj 223 85 inlet;
#X obj 222 152 outlet~;
#X obj 296 84 inlet;
#X obj 295 151 outlet~;
#X obj 369 83 inlet;
#X obj 368 150 outlet~;
#X obj 439 83 inlet;
#X obj 438 150 outlet~;
#X obj 512 82 inlet;
#X obj 511 149 outlet~;
#X obj 80 120 streamer~;
#X obj 150 120 streamer~;
#X obj 223 119 streamer~;
#X obj 296 118 streamer~;
#X obj 369 117 streamer~;
#X obj 439 117 streamer~;
#X obj 512 116 streamer~;
#X connect 0 0 2 0;
#X connect 1 0 0 0;
#X connect 3 0 17 0;
#X connect 5 0 18 0;
#X connect 7 0 19 0;
#X connect 9 0 20 0;
#X connect 11 0 21 0;
#X connect 13 0 22 0;
#X connect 15 0 23 0;
#X connect 17 0 4 0;
#X connect 18 0 6 0;
#X connect 19 0 8 0;
#X connect 20 0 10 0;
#X connect 21 0 12 0;
#X connect 22 0 14 0;
#X connect 23 0 16 0;
