#N canvas 926 23 948 1035 10;
#X obj 123 124 nbx 5 14 -1e+37 1e+37 0 0 empty empty empty 0 -8 0 10
-262144 -1 -1 -89 256;
#X obj 1 -132 inlet~;
#X msg 62 122 0 \$1;
#X obj 6 122 s \$0-ctl;
#X obj 129 754 r \$0-ctl;
#X obj 123 143 nbx 5 14 -1e+37 1e+37 0 0 empty empty empty 0 -8 0 10
-262144 -1 -1 -99 256;
#X obj 230 143 s \$0-ctl;
#X obj 123 161 nbx 5 14 -1e+37 1e+37 0 0 empty empty empty 0 -8 0 10
-262144 -1 -1 -99 256;
#X obj 6 159 s \$0-ctl;
#X obj 123 180 nbx 5 14 -1e+37 1e+37 0 0 empty empty empty 0 -8 0 10
-262144 -1 -1 -99 256;
#X obj 230 180 s \$0-ctl;
#X obj 123 198 nbx 5 14 -1e+37 1e+37 0 0 empty empty empty 0 -8 0 10
-262144 -1 -1 -99 256;
#X obj 6 196 s \$0-ctl;
#X obj 123 217 nbx 5 14 -1e+37 1e+37 0 0 empty empty empty 0 -8 0 10
-262144 -1 -1 -99 256;
#X obj 230 217 s \$0-ctl;
#X obj 123 235 nbx 5 14 -1e+37 1e+37 0 0 empty empty empty 0 -8 0 10
-262144 -1 -1 -99 256;
#X obj 6 233 s \$0-ctl;
#X obj 123 254 nbx 5 14 -1e+37 1e+37 0 0 empty empty empty 0 -8 0 10
-262144 -1 -1 -99 256;
#X obj 230 254 s \$0-ctl;
#X obj 123 272 nbx 5 14 -1e+37 1e+37 0 0 empty empty empty 0 -8 0 10
-262144 -1 -1 -99 256;
#X obj 6 270 s \$0-ctl;
#X obj 123 291 nbx 5 14 -1e+37 1e+37 0 0 empty empty empty 0 -8 0 10
-262144 -1 -1 -99 256;
#X obj 230 291 s \$0-ctl;
#X obj 123 309 nbx 5 14 -1e+37 1e+37 0 0 empty empty empty 0 -8 0 10
-262144 -1 -1 -99 256;
#X obj 6 307 s \$0-ctl;
#X obj 123 328 nbx 5 14 -1e+37 1e+37 0 0 empty empty empty 0 -8 0 10
-262144 -1 -1 -99 256;
#X obj 235 328 s \$0-ctl;
#X obj 123 346 nbx 5 14 -1e+37 1e+37 0 0 empty empty empty 0 -8 0 10
-262144 -1 -1 -99 256;
#X obj 6 344 s \$0-ctl;
#X obj 123 365 nbx 5 14 -1e+37 1e+37 0 0 empty empty empty 0 -8 0 10
-262144 -1 -1 -99 256;
#X obj 235 365 s \$0-ctl;
#X obj 123 383 nbx 5 14 -1e+37 1e+37 0 0 empty empty empty 0 -8 0 10
-262144 -1 -1 -99 256;
#X obj 6 381 s \$0-ctl;
#X obj 123 402 nbx 5 14 -1e+37 1e+37 0 0 empty empty empty 0 -8 0 10
-262144 -1 -1 -99 256;
#X obj 235 402 s \$0-ctl;
#X obj 123 421 nbx 5 14 -1e+37 1e+37 0 0 empty empty empty 0 -8 0 10
-262144 -1 -1 4 256;
#X obj 6 419 s \$0-ctl;
#X obj 123 440 nbx 5 14 -1e+37 1e+37 0 0 empty empty empty 0 -8 0 10
-262144 -1 -1 -99 256;
#X obj 235 440 s \$0-ctl;
#X obj 123 458 nbx 5 14 -1e+37 1e+37 0 0 empty empty empty 0 -8 0 10
-262144 -1 -1 -99 256;
#X obj 6 456 s \$0-ctl;
#X obj 123 477 nbx 5 14 -1e+37 1e+37 0 0 empty empty empty 0 -8 0 10
-262144 -1 -1 -99 256;
#X obj 235 477 s \$0-ctl;
#X obj 123 495 nbx 5 14 -1e+37 1e+37 0 0 empty empty empty 0 -8 0 10
-262144 -1 -1 -99 256;
#X obj 6 493 s \$0-ctl;
#X obj 123 514 nbx 5 14 -1e+37 1e+37 0 0 empty empty empty 0 -8 0 10
-262144 -1 -1 -99 256;
#X obj 235 514 s \$0-ctl;
#X obj 123 532 nbx 5 14 -1e+37 1e+37 0 0 empty empty empty 0 -8 0 10
-262144 -1 -1 -99 256;
#X obj 6 530 s \$0-ctl;
#X obj 123 551 nbx 5 14 -1e+37 1e+37 0 0 empty empty empty 0 -8 0 10
-262144 -1 -1 -99 256;
#X obj 235 551 s \$0-ctl;
#X msg 192 143 1 \$1;
#X msg 62 159 2 \$1;
#X msg 192 180 3 \$1;
#X msg 62 196 4 \$1;
#X msg 192 217 5 \$1;
#X msg 62 233 6 \$1;
#X msg 192 254 7 \$1;
#X msg 62 270 8 \$1;
#X msg 192 291 9 \$1;
#X msg 62 307 10 \$1;
#X msg 192 328 11 \$1;
#X msg 62 344 12 \$1;
#X msg 192 365 13 \$1;
#X msg 62 381 14 \$1;
#X msg 192 402 15 \$1;
#X msg 62 419 16 \$1;
#X msg 192 440 17 \$1;
#X msg 62 456 18 \$1;
#X msg 192 477 19 \$1;
#X msg 62 493 20 \$1;
#X msg 192 514 21 \$1;
#X msg 62 530 22 \$1;
#X msg 192 551 23 \$1;
#X obj 223 -142 inlet;
#X obj 223 -119 s \$0-lvl;
#X obj 400 -114 r \$0-lvl;
#X obj 400 -94 route 1;
#X text 105 122 1;
#X text 104 143 2;
#X text 104 161 3;
#X text 105 179 4;
#X text 105 195 5;
#X text 104 216 6;
#X text 104 231 7;
#X text 103 252 8;
#X text 104 271 9;
#X text 100 292 10;
#X text 100 309 11;
#X text 101 328 12;
#X text 101 345 13;
#X text 100 365 14;
#X text 100 383 15;
#X text 100 402 16;
#X text 100 421 17;
#X text 101 441 18;
#X text 101 459 19;
#X text 102 478 20;
#X text 102 495 21;
#X text 101 515 22;
#X text 101 533 23;
#X text 101 552 24;
#X obj 400 -72 pack f f;
#X obj 457 -114 r interp_speed;
#X floatatom 457 -87 5 0 0 0 - - -, f 5;
#X obj 399 -27 r \$0-lvl;
#X obj 399 15 pack f f;
#X obj 456 -27 r interp_speed;
#X floatatom 456 0 5 0 0 0 - - -, f 5;
#X obj 399 -7 route 2;
#X obj 399 63 r \$0-lvl;
#X obj 399 105 pack f f;
#X obj 399 126 line;
#X obj 456 63 r interp_speed;
#X floatatom 456 90 5 0 0 0 - - -, f 5;
#X obj 399 83 route 3;
#X obj 398 149 r \$0-lvl;
#X obj 398 193 pack f f;
#X obj 455 149 r interp_speed;
#X floatatom 455 176 5 0 0 0 - - -, f 5;
#X obj 398 171 route 4;
#X obj 580 1 r \$0-lvl;
#X obj 580 43 pack f f;
#X obj 637 1 r interp_speed;
#X floatatom 637 28 5 0 0 0 - - -, f 5;
#X obj 579 88 r \$0-lvl;
#X obj 579 130 pack f f;
#X obj 636 88 r interp_speed;
#X floatatom 636 115 5 0 0 0 - - -, f 5;
#X obj 579 178 r \$0-lvl;
#X obj 579 220 pack f f;
#X obj 636 178 r interp_speed;
#X floatatom 636 205 5 0 0 0 - - -, f 5;
#X obj 578 264 r \$0-lvl;
#X obj 578 308 pack f f;
#X obj 635 264 r interp_speed;
#X floatatom 635 291 5 0 0 0 - - -, f 5;
#X obj 580 21 route 5;
#X obj 579 108 route 6;
#X obj 579 198 route 7;
#X obj 578 286 route 8;
#X obj 384 350 r \$0-lvl;
#X obj 384 392 pack f f;
#X obj 441 350 r interp_speed;
#X floatatom 441 377 5 0 0 0 - - -, f 5;
#X obj 383 437 r \$0-lvl;
#X obj 383 479 pack f f;
#X obj 440 437 r interp_speed;
#X floatatom 440 464 5 0 0 0 - - -, f 5;
#X obj 383 527 r \$0-lvl;
#X obj 383 569 pack f f;
#X obj 440 527 r interp_speed;
#X floatatom 440 554 5 0 0 0 - - -, f 5;
#X obj 382 613 r \$0-lvl;
#X obj 382 657 pack f f;
#X obj 439 613 r interp_speed;
#X floatatom 439 640 5 0 0 0 - - -, f 5;
#X obj 564 431 r \$0-lvl;
#X obj 564 473 pack f f;
#X obj 621 431 r interp_speed;
#X floatatom 621 458 5 0 0 0 - - -, f 5;
#X obj 563 518 r \$0-lvl;
#X obj 563 560 pack f f;
#X obj 620 518 r interp_speed;
#X floatatom 620 545 5 0 0 0 - - -, f 5;
#X obj 563 608 r \$0-lvl;
#X obj 563 650 pack f f;
#X obj 563 671 line;
#X obj 620 608 r interp_speed;
#X floatatom 620 635 5 0 0 0 - - -, f 5;
#X obj 562 694 r \$0-lvl;
#X obj 562 738 pack f f;
#X obj 619 694 r interp_speed;
#X floatatom 619 721 5 0 0 0 - - -, f 5;
#X obj 384 370 route 9;
#X obj 383 457 route 10;
#X obj 383 547 route 11;
#X obj 382 635 route 12;
#X obj 564 451 route 13;
#X obj 563 538 route 14;
#X obj 563 628 route 15;
#X obj 562 716 route 16;
#X obj 366 758 r \$0-lvl;
#X obj 366 800 pack f f;
#X obj 423 758 r interp_speed;
#X floatatom 423 785 5 0 0 0 - - -, f 5;
#X obj 365 845 r \$0-lvl;
#X obj 365 887 pack f f;
#X obj 422 845 r interp_speed;
#X floatatom 422 872 5 0 0 0 - - -, f 5;
#X obj 365 935 r \$0-lvl;
#X obj 365 977 pack f f;
#X obj 422 935 r interp_speed;
#X floatatom 422 962 5 0 0 0 - - -, f 5;
#X obj 364 1021 r \$0-lvl;
#X obj 364 1065 pack f f;
#X obj 421 1021 r interp_speed;
#X floatatom 421 1048 5 0 0 0 - - -, f 5;
#X obj 546 839 r \$0-lvl;
#X obj 546 881 pack f f;
#X obj 603 839 r interp_speed;
#X floatatom 603 866 5 0 0 0 - - -, f 5;
#X obj 545 926 r \$0-lvl;
#X obj 545 968 pack f f;
#X obj 602 926 r interp_speed;
#X floatatom 602 953 5 0 0 0 - - -, f 5;
#X obj 545 1016 r \$0-lvl;
#X obj 545 1058 pack f f;
#X obj 602 1016 r interp_speed;
#X floatatom 602 1043 5 0 0 0 - - -, f 5;
#X obj 544 1102 r \$0-lvl;
#X obj 544 1146 pack f f;
#X obj 601 1102 r interp_speed;
#X floatatom 601 1129 5 0 0 0 - - -, f 5;
#X obj 366 778 route 17;
#X obj 365 865 route 18;
#X obj 365 955 route 19;
#X obj 364 1043 route 20;
#X obj 546 859 route 21;
#X obj 545 946 route 22;
#X obj 545 1036 route 23;
#X obj 544 1124 route 24;
#X obj 0 779 clone output_stage~ 24;
#X obj 400 -51 line 0 2;
#X obj 399 36 line;
#X obj 398 214 line;
#X obj 384 413 line;
#X obj 383 500 line;
#X obj 383 590 line;
#X obj 382 678 line;
#X obj 580 64 line;
#X obj 579 151 line;
#X obj 579 241 line;
#X obj 578 329 line;
#X obj 564 494 line;
#X obj 563 581 line;
#X obj 562 759 line;
#X obj 546 902 line;
#X obj 545 989 line;
#X obj 545 1079 line;
#X obj 544 1167 line;
#X obj 365 998 line;
#X obj 364 1086 line;
#X obj 365 908 line;
#X obj 366 821 line;
#X connect 0 0 2 0;
#X connect 1 0 222 0;
#X connect 2 0 3 0;
#X connect 4 0 222 1;
#X connect 5 0 51 0;
#X connect 7 0 52 0;
#X connect 9 0 53 0;
#X connect 11 0 54 0;
#X connect 13 0 55 0;
#X connect 15 0 56 0;
#X connect 17 0 57 0;
#X connect 19 0 58 0;
#X connect 21 0 59 0;
#X connect 23 0 60 0;
#X connect 25 0 61 0;
#X connect 27 0 62 0;
#X connect 29 0 63 0;
#X connect 31 0 64 0;
#X connect 33 0 65 0;
#X connect 35 0 66 0;
#X connect 37 0 67 0;
#X connect 39 0 68 0;
#X connect 41 0 69 0;
#X connect 43 0 70 0;
#X connect 45 0 71 0;
#X connect 47 0 72 0;
#X connect 49 0 73 0;
#X connect 51 0 6 0;
#X connect 52 0 8 0;
#X connect 53 0 10 0;
#X connect 54 0 12 0;
#X connect 55 0 14 0;
#X connect 56 0 16 0;
#X connect 57 0 18 0;
#X connect 58 0 20 0;
#X connect 59 0 22 0;
#X connect 60 0 24 0;
#X connect 61 0 26 0;
#X connect 62 0 28 0;
#X connect 63 0 30 0;
#X connect 64 0 32 0;
#X connect 65 0 34 0;
#X connect 66 0 36 0;
#X connect 67 0 38 0;
#X connect 68 0 40 0;
#X connect 69 0 42 0;
#X connect 70 0 44 0;
#X connect 71 0 46 0;
#X connect 72 0 48 0;
#X connect 73 0 50 0;
#X connect 74 0 75 0;
#X connect 76 0 77 0;
#X connect 77 0 102 0;
#X connect 102 0 223 0;
#X connect 103 0 104 0;
#X connect 104 0 102 1;
#X connect 105 0 109 0;
#X connect 106 0 224 0;
#X connect 107 0 108 0;
#X connect 108 0 106 1;
#X connect 109 0 106 0;
#X connect 110 0 115 0;
#X connect 111 0 112 0;
#X connect 112 0 7 0;
#X connect 113 0 114 0;
#X connect 114 0 111 1;
#X connect 115 0 111 0;
#X connect 116 0 120 0;
#X connect 117 0 225 0;
#X connect 118 0 119 0;
#X connect 119 0 117 1;
#X connect 120 0 117 0;
#X connect 121 0 137 0;
#X connect 122 0 230 0;
#X connect 123 0 124 0;
#X connect 124 0 122 1;
#X connect 125 0 138 0;
#X connect 126 0 231 0;
#X connect 127 0 128 0;
#X connect 128 0 126 1;
#X connect 129 0 139 0;
#X connect 130 0 232 0;
#X connect 131 0 132 0;
#X connect 132 0 130 1;
#X connect 133 0 140 0;
#X connect 134 0 233 0;
#X connect 135 0 136 0;
#X connect 136 0 134 1;
#X connect 137 0 122 0;
#X connect 138 0 126 0;
#X connect 139 0 130 0;
#X connect 140 0 134 0;
#X connect 141 0 174 0;
#X connect 142 0 226 0;
#X connect 143 0 144 0;
#X connect 144 0 142 1;
#X connect 145 0 175 0;
#X connect 146 0 227 0;
#X connect 147 0 148 0;
#X connect 148 0 146 1;
#X connect 149 0 176 0;
#X connect 150 0 228 0;
#X connect 151 0 152 0;
#X connect 152 0 150 1;
#X connect 153 0 177 0;
#X connect 154 0 229 0;
#X connect 155 0 156 0;
#X connect 156 0 154 1;
#X connect 157 0 178 0;
#X connect 158 0 234 0;
#X connect 159 0 160 0;
#X connect 160 0 158 1;
#X connect 161 0 179 0;
#X connect 162 0 235 0;
#X connect 163 0 164 0;
#X connect 164 0 162 1;
#X connect 165 0 180 0;
#X connect 166 0 167 0;
#X connect 167 0 31 0;
#X connect 168 0 169 0;
#X connect 169 0 166 1;
#X connect 170 0 181 0;
#X connect 171 0 236 0;
#X connect 172 0 173 0;
#X connect 173 0 171 1;
#X connect 174 0 142 0;
#X connect 175 0 146 0;
#X connect 176 0 150 0;
#X connect 177 0 154 0;
#X connect 178 0 158 0;
#X connect 179 0 162 0;
#X connect 180 0 166 0;
#X connect 181 0 171 0;
#X connect 182 0 214 0;
#X connect 183 0 244 0;
#X connect 184 0 185 0;
#X connect 185 0 183 1;
#X connect 186 0 215 0;
#X connect 187 0 243 0;
#X connect 188 0 189 0;
#X connect 189 0 187 1;
#X connect 190 0 216 0;
#X connect 191 0 241 0;
#X connect 192 0 193 0;
#X connect 193 0 191 1;
#X connect 194 0 217 0;
#X connect 195 0 242 0;
#X connect 196 0 197 0;
#X connect 197 0 195 1;
#X connect 198 0 218 0;
#X connect 199 0 237 0;
#X connect 200 0 201 0;
#X connect 201 0 199 1;
#X connect 202 0 219 0;
#X connect 203 0 238 0;
#X connect 204 0 205 0;
#X connect 205 0 203 1;
#X connect 206 0 220 0;
#X connect 207 0 239 0;
#X connect 208 0 209 0;
#X connect 209 0 207 1;
#X connect 210 0 221 0;
#X connect 211 0 240 0;
#X connect 212 0 213 0;
#X connect 213 0 211 1;
#X connect 214 0 183 0;
#X connect 215 0 187 0;
#X connect 216 0 191 0;
#X connect 217 0 195 0;
#X connect 218 0 199 0;
#X connect 219 0 203 0;
#X connect 220 0 207 0;
#X connect 221 0 211 0;
#X connect 223 0 0 0;
#X connect 224 0 5 0;
#X connect 225 0 9 0;
#X connect 226 0 19 0;
#X connect 227 0 21 0;
#X connect 228 0 23 0;
#X connect 229 0 25 0;
#X connect 230 0 11 0;
#X connect 231 0 13 0;
#X connect 232 0 15 0;
#X connect 233 0 17 0;
#X connect 234 0 27 0;
#X connect 235 0 29 0;
#X connect 236 0 33 0;
#X connect 237 0 43 0;
#X connect 238 0 45 0;
#X connect 239 0 47 0;
#X connect 240 0 49 0;
#X connect 241 0 39 0;
#X connect 242 0 41 0;
#X connect 243 0 37 0;
#X connect 244 0 35 0;
#X coords 0 -1 1 1 80 470 1 100 100;
