#N canvas 154 270 1660 517 10;
#X obj 120 80 vsl 15 128 -99 12 0 0 empty empty 1 4 -9 0 10 -262144
-1 -1 10927 1;
#X obj 120 255 + 100;
#X obj 120 278 dbtorms;
#X obj 120 375 s output_gain_1;
#X obj 120 12 loadbang;
#X msg 120 38 0;
#X obj 120 348 *;
#X obj 13 82 vsl 15 128 0 127 0 0 empty empty empty 0 -9 0 10 -262144
-1 -1 100 1;
#X obj 13 218 / 127;
#X obj 13 246 s master_vol;
#X obj 147 301 r master_vol;
#X obj 120 320 f;
#X obj 145 321 t b f;
#X obj 242 79 vsl 15 128 -99 12 0 0 empty empty 2 4 -9 0 10 -262144
-1 -1 11327 1;
#X obj 242 255 + 100;
#X obj 242 278 dbtorms;
#X obj 242 12 loadbang;
#X msg 242 38 0;
#X obj 242 348 *;
#X obj 269 301 r master_vol;
#X obj 242 320 f;
#X obj 267 321 t b f;
#X obj 242 381 s output_gain_2;
#X obj 13 12 loadbang;
#X obj 370 80 vsl 15 128 -99 12 0 0 empty empty 3 4 -9 0 10 -262144
-1 -1 11327 1;
#X obj 370 255 + 100;
#X obj 370 278 dbtorms;
#X obj 370 12 loadbang;
#X msg 370 38 0;
#X obj 370 348 *;
#X obj 397 301 r master_vol;
#X obj 370 320 f;
#X obj 395 321 t b f;
#X obj 492 80 vsl 15 128 -99 12 0 0 empty empty 4 4 -9 0 10 -262144
-1 -1 11327 1;
#X obj 492 255 + 100;
#X obj 492 278 dbtorms;
#X obj 492 12 loadbang;
#X msg 492 38 0;
#X obj 492 348 *;
#X obj 519 301 r master_vol;
#X obj 492 320 f;
#X obj 517 321 t b f;
#X obj 370 377 s output_gain_3;
#X obj 492 381 s output_gain_4;
#X obj 610 80 vsl 15 128 -99 12 0 0 empty empty 5 4 -9 0 10 -262144
-1 -1 11327 1;
#X obj 610 255 + 100;
#X obj 610 278 dbtorms;
#X obj 610 12 loadbang;
#X msg 610 38 0;
#X obj 610 348 *;
#X obj 637 301 r master_vol;
#X obj 610 320 f;
#X obj 635 321 t b f;
#X obj 732 79 vsl 15 128 -99 12 0 0 empty empty 6 4 -9 0 10 -262144
-1 -1 11327 1;
#X obj 732 255 + 100;
#X obj 732 278 dbtorms;
#X obj 732 12 loadbang;
#X msg 732 38 0;
#X obj 732 348 *;
#X obj 759 301 r master_vol;
#X obj 732 320 f;
#X obj 757 321 t b f;
#X obj 860 80 vsl 15 128 -99 12 0 0 empty empty 7 4 -9 0 10 -262144
-1 -1 11327 1;
#X obj 860 255 + 100;
#X obj 860 278 dbtorms;
#X obj 860 12 loadbang;
#X msg 860 38 0;
#X obj 860 348 *;
#X obj 887 301 r master_vol;
#X obj 860 320 f;
#X obj 885 321 t b f;
#X obj 982 80 vsl 15 128 -99 12 0 0 empty empty 8 4 -9 0 10 -262144
-1 -1 11327 1;
#X obj 982 255 + 100;
#X obj 982 278 dbtorms;
#X obj 982 12 loadbang;
#X msg 982 38 0;
#X obj 982 348 *;
#X obj 1009 301 r master_vol;
#X obj 982 320 f;
#X obj 1007 321 t b f;
#X obj 610 375 s output_gain_5;
#X obj 732 381 s output_gain_6;
#X obj 860 377 s output_gain_7;
#X obj 982 381 s output_gain_8;
#X obj 1101 81 vsl 15 128 -99 12 0 0 empty empty 9 4 -9 0 10 -262144
-1 -1 11327 1;
#X obj 1101 256 + 100;
#X obj 1101 279 dbtorms;
#X obj 1101 13 loadbang;
#X msg 1101 39 0;
#X obj 1101 349 *;
#X obj 1128 302 r master_vol;
#X obj 1101 321 f;
#X obj 1126 322 t b f;
#X obj 1223 80 vsl 15 128 -99 12 0 0 empty empty 10 4 -9 0 10 -262144
-1 -1 11327 1;
#X obj 1223 256 + 100;
#X obj 1223 279 dbtorms;
#X obj 1223 13 loadbang;
#X msg 1223 39 0;
#X obj 1223 349 *;
#X obj 1250 302 r master_vol;
#X obj 1223 321 f;
#X obj 1248 322 t b f;
#X obj 1351 81 vsl 15 128 -99 12 0 0 empty empty 11 4 -9 0 10 -262144
-1 -1 11327 1;
#X obj 1351 256 + 100;
#X obj 1351 279 dbtorms;
#X obj 1351 13 loadbang;
#X msg 1351 39 0;
#X obj 1351 349 *;
#X obj 1378 302 r master_vol;
#X obj 1351 321 f;
#X obj 1376 322 t b f;
#X obj 1473 81 vsl 15 128 -99 12 0 0 empty empty 12 4 -9 0 10 -262144
-1 -1 11327 1;
#X obj 1473 256 + 100;
#X obj 1473 279 dbtorms;
#X obj 1473 13 loadbang;
#X msg 1473 39 0;
#X obj 1473 349 *;
#X obj 1500 302 r master_vol;
#X obj 1473 321 f;
#X obj 1498 322 t b f;
#X obj 1591 81 vsl 15 128 -99 12 0 0 empty empty 13 4 -9 0 10 -262144
-1 -1 11327 1;
#X obj 1591 256 + 100;
#X obj 1591 279 dbtorms;
#X obj 1591 13 loadbang;
#X msg 1591 39 0;
#X obj 1591 349 *;
#X obj 1618 302 r master_vol;
#X obj 1591 321 f;
#X obj 1616 322 t b f;
#X obj 1713 80 vsl 15 128 -99 12 0 0 empty empty 14 4 -9 0 10 -262144
-1 -1 11327 1;
#X obj 1713 256 + 100;
#X obj 1713 279 dbtorms;
#X obj 1713 13 loadbang;
#X msg 1713 39 0;
#X obj 1713 349 *;
#X obj 1740 302 r master_vol;
#X obj 1713 321 f;
#X obj 1738 322 t b f;
#X obj 1841 81 vsl 15 128 -99 12 0 0 empty empty 15 4 -9 0 10 -262144
-1 -1 11327 1;
#X obj 1841 256 + 100;
#X obj 1841 279 dbtorms;
#X obj 1841 13 loadbang;
#X msg 1841 39 0;
#X obj 1841 349 *;
#X obj 1868 302 r master_vol;
#X obj 1841 321 f;
#X obj 1866 322 t b f;
#X obj 1963 81 vsl 15 128 -99 12 0 0 empty empty 16 4 -9 0 10 -262144
-1 -1 11327 1;
#X obj 1963 256 + 100;
#X obj 1963 279 dbtorms;
#X obj 1963 13 loadbang;
#X msg 1963 39 0;
#X obj 1963 349 *;
#X obj 1990 302 r master_vol;
#X obj 1963 321 f;
#X obj 1988 322 t b f;
#X obj 1223 382 s output_gain_10;
#X obj 1351 378 s output_gain_11;
#X obj 1473 382 s output_gain_12;
#X obj 1591 376 s output_gain_13;
#X obj 1713 382 s output_gain_14;
#X obj 1841 378 s output_gain_15;
#X obj 1963 382 s output_gain_16;
#X obj 2086 81 vsl 15 128 -99 12 0 0 empty empty 17 4 -9 0 10 -262144
-1 -1 11327 1;
#X obj 2086 256 + 100;
#X obj 2086 279 dbtorms;
#X obj 2086 13 loadbang;
#X msg 2086 39 0;
#X obj 2086 349 *;
#X obj 2113 302 r master_vol;
#X obj 2086 321 f;
#X obj 2111 322 t b f;
#X obj 2208 80 vsl 15 128 -99 12 0 0 empty empty 18 4 -9 0 10 -262144
-1 -1 11327 1;
#X obj 2208 256 + 100;
#X obj 2208 279 dbtorms;
#X obj 2208 13 loadbang;
#X msg 2208 39 0;
#X obj 2208 349 *;
#X obj 2235 302 r master_vol;
#X obj 2208 321 f;
#X obj 2233 322 t b f;
#X obj 2336 81 vsl 15 128 -99 12 0 0 empty empty 19 4 -9 0 10 -262144
-1 -1 11327 1;
#X obj 2336 256 + 100;
#X obj 2336 279 dbtorms;
#X obj 2336 13 loadbang;
#X msg 2336 39 0;
#X obj 2336 349 *;
#X obj 2363 302 r master_vol;
#X obj 2336 321 f;
#X obj 2361 322 t b f;
#X obj 2458 81 vsl 15 128 -99 12 0 0 empty empty 20 4 -9 0 10 -262144
-1 -1 11327 1;
#X obj 2458 256 + 100;
#X obj 2458 279 dbtorms;
#X obj 2458 13 loadbang;
#X msg 2458 39 0;
#X obj 2458 349 *;
#X obj 2485 302 r master_vol;
#X obj 2458 321 f;
#X obj 2483 322 t b f;
#X obj 2576 81 vsl 15 128 -99 12 0 0 empty empty 21 4 -9 0 10 -262144
-1 -1 11327 1;
#X obj 2576 256 + 100;
#X obj 2576 279 dbtorms;
#X obj 2576 13 loadbang;
#X msg 2576 39 0;
#X obj 2576 349 *;
#X obj 2603 302 r master_vol;
#X obj 2576 321 f;
#X obj 2601 322 t b f;
#X obj 2698 80 vsl 15 128 -99 12 0 0 empty empty 22 4 -9 0 10 -262144
-1 -1 11327 1;
#X obj 2698 256 + 100;
#X obj 2698 279 dbtorms;
#X obj 2698 13 loadbang;
#X msg 2698 39 0;
#X obj 2698 349 *;
#X obj 2725 302 r master_vol;
#X obj 2698 321 f;
#X obj 2723 322 t b f;
#X obj 2826 81 vsl 15 128 -99 12 0 0 empty empty 23 4 -9 0 10 -262144
-1 -1 11327 1;
#X obj 2826 256 + 100;
#X obj 2826 279 dbtorms;
#X obj 2826 13 loadbang;
#X msg 2826 39 0;
#X obj 2826 349 *;
#X obj 2853 302 r master_vol;
#X obj 2826 321 f;
#X obj 2851 322 t b f;
#X obj 2948 81 vsl 15 128 -99 12 0 0 empty empty 24 4 -9 0 10 -262144
-1 -1 11327 1;
#X obj 2948 256 + 100;
#X obj 2948 279 dbtorms;
#X obj 2948 13 loadbang;
#X msg 2948 39 0;
#X obj 2948 349 *;
#X obj 2975 302 r master_vol;
#X obj 2948 321 f;
#X obj 2973 322 t b f;
#X obj 1102 375 s output_gain_9;
#X obj 2086 375 s output_gain_17;
#X obj 2208 382 s output_gain_18;
#X obj 2336 378 s output_gain_19;
#X obj 2458 382 s output_gain_20;
#X obj 2576 376 s output_gain_21;
#X obj 2698 382 s output_gain_22;
#X obj 2826 378 s output_gain_23;
#X obj 2948 382 s output_gain_24;
#X msg 13 41 127;
#X connect 0 0 1 0;
#X connect 1 0 2 0;
#X connect 2 0 11 0;
#X connect 4 0 5 0;
#X connect 5 0 0 0;
#X connect 6 0 3 0;
#X connect 7 0 8 0;
#X connect 8 0 9 0;
#X connect 10 0 12 0;
#X connect 11 0 6 0;
#X connect 12 0 11 0;
#X connect 12 1 6 1;
#X connect 13 0 14 0;
#X connect 14 0 15 0;
#X connect 15 0 20 0;
#X connect 16 0 17 0;
#X connect 17 0 13 0;
#X connect 18 0 22 0;
#X connect 19 0 21 0;
#X connect 20 0 18 0;
#X connect 21 0 20 0;
#X connect 21 1 18 1;
#X connect 23 0 244 0;
#X connect 24 0 25 0;
#X connect 25 0 26 0;
#X connect 26 0 31 0;
#X connect 27 0 28 0;
#X connect 28 0 24 0;
#X connect 29 0 42 0;
#X connect 30 0 32 0;
#X connect 31 0 29 0;
#X connect 32 0 31 0;
#X connect 32 1 29 1;
#X connect 33 0 34 0;
#X connect 34 0 35 0;
#X connect 35 0 40 0;
#X connect 36 0 37 0;
#X connect 37 0 33 0;
#X connect 38 0 43 0;
#X connect 39 0 41 0;
#X connect 40 0 38 0;
#X connect 41 0 40 0;
#X connect 41 1 38 1;
#X connect 44 0 45 0;
#X connect 45 0 46 0;
#X connect 46 0 51 0;
#X connect 47 0 48 0;
#X connect 48 0 44 0;
#X connect 49 0 80 0;
#X connect 50 0 52 0;
#X connect 51 0 49 0;
#X connect 52 0 51 0;
#X connect 52 1 49 1;
#X connect 53 0 54 0;
#X connect 54 0 55 0;
#X connect 55 0 60 0;
#X connect 56 0 57 0;
#X connect 57 0 53 0;
#X connect 58 0 81 0;
#X connect 59 0 61 0;
#X connect 60 0 58 0;
#X connect 61 0 60 0;
#X connect 61 1 58 1;
#X connect 62 0 63 0;
#X connect 63 0 64 0;
#X connect 64 0 69 0;
#X connect 65 0 66 0;
#X connect 66 0 62 0;
#X connect 67 0 82 0;
#X connect 68 0 70 0;
#X connect 69 0 67 0;
#X connect 70 0 69 0;
#X connect 70 1 67 1;
#X connect 71 0 72 0;
#X connect 72 0 73 0;
#X connect 73 0 78 0;
#X connect 74 0 75 0;
#X connect 75 0 71 0;
#X connect 76 0 83 0;
#X connect 77 0 79 0;
#X connect 78 0 76 0;
#X connect 79 0 78 0;
#X connect 79 1 76 1;
#X connect 84 0 85 0;
#X connect 85 0 86 0;
#X connect 86 0 91 0;
#X connect 87 0 88 0;
#X connect 88 0 84 0;
#X connect 89 0 235 0;
#X connect 90 0 92 0;
#X connect 91 0 89 0;
#X connect 92 0 91 0;
#X connect 92 1 89 1;
#X connect 93 0 94 0;
#X connect 94 0 95 0;
#X connect 95 0 100 0;
#X connect 96 0 97 0;
#X connect 97 0 93 0;
#X connect 98 0 156 0;
#X connect 99 0 101 0;
#X connect 100 0 98 0;
#X connect 101 0 100 0;
#X connect 101 1 98 1;
#X connect 102 0 103 0;
#X connect 103 0 104 0;
#X connect 104 0 109 0;
#X connect 105 0 106 0;
#X connect 106 0 102 0;
#X connect 107 0 157 0;
#X connect 108 0 110 0;
#X connect 109 0 107 0;
#X connect 110 0 109 0;
#X connect 110 1 107 1;
#X connect 111 0 112 0;
#X connect 112 0 113 0;
#X connect 113 0 118 0;
#X connect 114 0 115 0;
#X connect 115 0 111 0;
#X connect 116 0 158 0;
#X connect 117 0 119 0;
#X connect 118 0 116 0;
#X connect 119 0 118 0;
#X connect 119 1 116 1;
#X connect 120 0 121 0;
#X connect 121 0 122 0;
#X connect 122 0 127 0;
#X connect 123 0 124 0;
#X connect 124 0 120 0;
#X connect 125 0 159 0;
#X connect 126 0 128 0;
#X connect 127 0 125 0;
#X connect 128 0 127 0;
#X connect 128 1 125 1;
#X connect 129 0 130 0;
#X connect 130 0 131 0;
#X connect 131 0 136 0;
#X connect 132 0 133 0;
#X connect 133 0 129 0;
#X connect 134 0 160 0;
#X connect 135 0 137 0;
#X connect 136 0 134 0;
#X connect 137 0 136 0;
#X connect 137 1 134 1;
#X connect 138 0 139 0;
#X connect 139 0 140 0;
#X connect 140 0 145 0;
#X connect 141 0 142 0;
#X connect 142 0 138 0;
#X connect 143 0 161 0;
#X connect 144 0 146 0;
#X connect 145 0 143 0;
#X connect 146 0 145 0;
#X connect 146 1 143 1;
#X connect 147 0 148 0;
#X connect 148 0 149 0;
#X connect 149 0 154 0;
#X connect 150 0 151 0;
#X connect 151 0 147 0;
#X connect 152 0 162 0;
#X connect 153 0 155 0;
#X connect 154 0 152 0;
#X connect 155 0 154 0;
#X connect 155 1 152 1;
#X connect 163 0 164 0;
#X connect 164 0 165 0;
#X connect 165 0 170 0;
#X connect 166 0 167 0;
#X connect 167 0 163 0;
#X connect 168 0 236 0;
#X connect 169 0 171 0;
#X connect 170 0 168 0;
#X connect 171 0 170 0;
#X connect 171 1 168 1;
#X connect 172 0 173 0;
#X connect 173 0 174 0;
#X connect 174 0 179 0;
#X connect 175 0 176 0;
#X connect 176 0 172 0;
#X connect 177 0 237 0;
#X connect 178 0 180 0;
#X connect 179 0 177 0;
#X connect 180 0 179 0;
#X connect 180 1 177 1;
#X connect 181 0 182 0;
#X connect 182 0 183 0;
#X connect 183 0 188 0;
#X connect 184 0 185 0;
#X connect 185 0 181 0;
#X connect 186 0 238 0;
#X connect 187 0 189 0;
#X connect 188 0 186 0;
#X connect 189 0 188 0;
#X connect 189 1 186 1;
#X connect 190 0 191 0;
#X connect 191 0 192 0;
#X connect 192 0 197 0;
#X connect 193 0 194 0;
#X connect 194 0 190 0;
#X connect 195 0 239 0;
#X connect 196 0 198 0;
#X connect 197 0 195 0;
#X connect 198 0 197 0;
#X connect 198 1 195 1;
#X connect 199 0 200 0;
#X connect 200 0 201 0;
#X connect 201 0 206 0;
#X connect 202 0 203 0;
#X connect 203 0 199 0;
#X connect 204 0 240 0;
#X connect 205 0 207 0;
#X connect 206 0 204 0;
#X connect 207 0 206 0;
#X connect 207 1 204 1;
#X connect 208 0 209 0;
#X connect 209 0 210 0;
#X connect 210 0 215 0;
#X connect 211 0 212 0;
#X connect 212 0 208 0;
#X connect 213 0 241 0;
#X connect 214 0 216 0;
#X connect 215 0 213 0;
#X connect 216 0 215 0;
#X connect 216 1 213 1;
#X connect 217 0 218 0;
#X connect 218 0 219 0;
#X connect 219 0 224 0;
#X connect 220 0 221 0;
#X connect 221 0 217 0;
#X connect 222 0 242 0;
#X connect 223 0 225 0;
#X connect 224 0 222 0;
#X connect 225 0 224 0;
#X connect 225 1 222 1;
#X connect 226 0 227 0;
#X connect 227 0 228 0;
#X connect 228 0 233 0;
#X connect 229 0 230 0;
#X connect 230 0 226 0;
#X connect 231 0 243 0;
#X connect 232 0 234 0;
#X connect 233 0 231 0;
#X connect 234 0 233 0;
#X connect 234 1 231 1;
#X connect 244 0 7 0;
#X coords -1 -1 1 1 3000 155 1 0 60;
