#N canvas 20 578 504 405 10;
#X obj 66 184 *~;
#X obj 67 29 inlet~;
#X obj 152 112 dbtorms;
#X obj 152 29 inlet;
#X floatatom 152 91 5 0 0 0 - - -, f 5;
#X floatatom 152 136 10 0 0 0 - - -, f 10;
#X obj 152 68 + 100;
#X floatatom 152 50 5 0 0 0 - - -, f 5;
#X text 247 92 works well with input ranged -99 to 18;
#X text 60 -15 output_atage designed for use with clone;
#X text 61 0 jmej // parallel studios // 2018;
#X obj 114 271 f \$1;
#X obj 67 373 throw~;
#X obj 114 322 makefilename output_%d;
#X msg 113 344 set \$1;
#X obj 114 245 loadbang;
#X obj 114 294 + 1;
#X msg 86 130 \$1 80;
#X obj 86 155 line~ 0;
#X connect 0 0 12 0;
#X connect 1 0 0 0;
#X connect 2 0 5 0;
#X connect 2 0 17 0;
#X connect 3 0 7 0;
#X connect 4 0 2 0;
#X connect 6 0 4 0;
#X connect 7 0 6 0;
#X connect 11 0 16 0;
#X connect 13 0 14 0;
#X connect 14 0 12 0;
#X connect 15 0 11 0;
#X connect 16 0 13 0;
#X connect 17 0 18 0;
#X connect 18 0 0 1;
