#N canvas 856 491 1046 628 10;
#X obj 443 221 dac~ 1 2 3 4 5 6 7 8;
#X obj 67 112 line~;
#X obj 52 142 *~;
#X msg 67 92 \$1 50;
#X obj 67 69 r output_gain_1;
#X obj 52 48 catch~ output_1;
#X obj 182 109 line~;
#X obj 167 139 *~;
#X msg 182 89 \$1 50;
#X obj 167 45 catch~ output_2;
#X obj 182 66 r output_gain_2;
#X obj 300 108 line~;
#X obj 285 138 *~;
#X msg 300 88 \$1 50;
#X obj 415 108 line~;
#X obj 400 137 *~;
#X msg 415 88 \$1 50;
#X obj 530 106 line~;
#X obj 515 136 *~;
#X msg 530 86 \$1 50;
#X obj 645 103 line~;
#X obj 630 133 *~;
#X msg 645 83 \$1 50;
#X obj 763 102 line~;
#X obj 748 132 *~;
#X msg 763 82 \$1 50;
#X obj 878 102 line~;
#X obj 863 131 *~;
#X msg 878 82 \$1 50;
#X obj 68 380 line~;
#X obj 53 410 *~;
#X msg 68 360 \$1 50;
#X obj 183 377 line~;
#X obj 168 407 *~;
#X msg 183 357 \$1 50;
#X obj 301 376 line~;
#X obj 286 406 *~;
#X msg 301 356 \$1 50;
#X obj 416 376 line~;
#X obj 401 405 *~;
#X msg 416 356 \$1 50;
#X obj 531 374 line~;
#X obj 516 404 *~;
#X msg 531 354 \$1 50;
#X obj 646 371 line~;
#X obj 631 401 *~;
#X msg 646 351 \$1 50;
#X obj 764 370 line~;
#X obj 749 400 *~;
#X msg 764 350 \$1 50;
#X obj 879 370 line~;
#X obj 864 399 *~;
#X msg 879 350 \$1 50;
#X obj 285 44 catch~ output_3;
#X obj 300 65 r output_gain_3;
#X obj 400 44 catch~ output_4;
#X obj 415 65 r output_gain_4;
#X obj 515 42 catch~ output_5;
#X obj 530 63 r output_gain_5;
#X obj 630 39 catch~ output_6;
#X obj 645 60 r output_gain_6;
#X obj 748 38 catch~ output_7;
#X obj 763 59 r output_gain_7;
#X obj 863 38 catch~ output_8;
#X obj 878 59 r output_gain_8;
#X obj 53 316 catch~ output_9;
#X obj 68 337 r output_gain_9;
#X obj 168 313 catch~ output_10;
#X obj 183 334 r output_gain_10;
#X obj 286 312 catch~ output_11;
#X obj 301 333 r output_gain_11;
#X obj 401 312 catch~ output_12;
#X obj 416 333 r output_gain_12;
#X obj 516 310 catch~ output_13;
#X obj 631 307 catch~ output_14;
#X obj 646 328 r output_gain_14;
#X obj 531 331 r output_gain_13;
#X obj 749 306 catch~ output_15;
#X obj 764 327 r output_gain_15;
#X obj 864 306 catch~ output_16;
#X obj 879 327 r output_gain_16;
#X obj 421 472 dac~ 9 10 11 12 13 14 15 16;
#X obj 71 573 line~;
#X obj 56 603 *~;
#X msg 71 553 \$1 50;
#X obj 186 570 line~;
#X obj 171 600 *~;
#X msg 186 550 \$1 50;
#X obj 304 569 line~;
#X obj 289 599 *~;
#X msg 304 549 \$1 50;
#X obj 419 569 line~;
#X obj 404 598 *~;
#X msg 419 549 \$1 50;
#X obj 534 567 line~;
#X obj 519 597 *~;
#X msg 534 547 \$1 50;
#X obj 649 564 line~;
#X obj 634 594 *~;
#X msg 649 544 \$1 50;
#X obj 767 563 line~;
#X obj 752 593 *~;
#X msg 767 543 \$1 50;
#X obj 882 563 line~;
#X obj 867 592 *~;
#X msg 882 543 \$1 50;
#X obj 56 509 catch~ output_17;
#X obj 71 530 r output_gain_17;
#X obj 171 506 catch~ output_18;
#X obj 186 527 r output_gain_18;
#X obj 289 505 catch~ output_19;
#X obj 304 526 r output_gain_19;
#X obj 403 507 catch~ output_20;
#X obj 419 526 r output_gain_20;
#X obj 519 503 catch~ output_21;
#X obj 534 524 r output_gain_21;
#X obj 634 500 catch~ output_22;
#X obj 649 521 r output_gain_22;
#X obj 752 499 catch~ output_23;
#X obj 767 520 r output_gain_23;
#X obj 868 499 catch~ output_24;
#X obj 882 520 r output_gain_24;
#X obj 430 682 dac~ 17 18 19 20 21 22 23 24;
#X floatatom 113 93 5 0 0 0 - - -, f 5;
#X floatatom 227 90 5 0 0 0 - - -, f 5;
#X connect 1 0 2 1;
#X connect 2 0 0 0;
#X connect 3 0 1 0;
#X connect 4 0 3 0;
#X connect 4 0 123 0;
#X connect 5 0 2 0;
#X connect 6 0 7 1;
#X connect 7 0 0 1;
#X connect 8 0 6 0;
#X connect 9 0 7 0;
#X connect 10 0 8 0;
#X connect 10 0 124 0;
#X connect 11 0 12 1;
#X connect 12 0 0 2;
#X connect 13 0 11 0;
#X connect 14 0 15 1;
#X connect 15 0 0 3;
#X connect 16 0 14 0;
#X connect 17 0 18 1;
#X connect 18 0 0 4;
#X connect 19 0 17 0;
#X connect 20 0 21 1;
#X connect 21 0 0 5;
#X connect 22 0 20 0;
#X connect 23 0 24 1;
#X connect 24 0 0 6;
#X connect 25 0 23 0;
#X connect 26 0 27 1;
#X connect 27 0 0 7;
#X connect 28 0 26 0;
#X connect 29 0 30 1;
#X connect 30 0 81 0;
#X connect 31 0 29 0;
#X connect 32 0 33 1;
#X connect 33 0 81 1;
#X connect 34 0 32 0;
#X connect 35 0 36 1;
#X connect 36 0 81 2;
#X connect 37 0 35 0;
#X connect 38 0 39 1;
#X connect 39 0 81 3;
#X connect 40 0 38 0;
#X connect 41 0 42 1;
#X connect 42 0 81 4;
#X connect 43 0 41 0;
#X connect 44 0 45 1;
#X connect 45 0 81 5;
#X connect 46 0 44 0;
#X connect 47 0 48 1;
#X connect 48 0 81 6;
#X connect 49 0 47 0;
#X connect 50 0 51 1;
#X connect 51 0 81 7;
#X connect 52 0 50 0;
#X connect 53 0 12 0;
#X connect 54 0 13 0;
#X connect 55 0 15 0;
#X connect 56 0 16 0;
#X connect 57 0 18 0;
#X connect 58 0 19 0;
#X connect 59 0 21 0;
#X connect 60 0 22 0;
#X connect 61 0 24 0;
#X connect 62 0 25 0;
#X connect 63 0 27 0;
#X connect 64 0 28 0;
#X connect 65 0 30 0;
#X connect 66 0 31 0;
#X connect 67 0 33 0;
#X connect 68 0 34 0;
#X connect 69 0 36 0;
#X connect 70 0 37 0;
#X connect 71 0 39 0;
#X connect 72 0 40 0;
#X connect 73 0 42 0;
#X connect 74 0 45 0;
#X connect 75 0 46 0;
#X connect 76 0 43 0;
#X connect 77 0 48 0;
#X connect 78 0 49 0;
#X connect 79 0 51 0;
#X connect 80 0 52 0;
#X connect 82 0 83 1;
#X connect 83 0 122 0;
#X connect 84 0 82 0;
#X connect 85 0 86 1;
#X connect 86 0 122 1;
#X connect 87 0 85 0;
#X connect 88 0 89 1;
#X connect 89 0 122 2;
#X connect 90 0 88 0;
#X connect 91 0 92 1;
#X connect 92 0 122 3;
#X connect 93 0 91 0;
#X connect 94 0 95 1;
#X connect 95 0 122 4;
#X connect 96 0 94 0;
#X connect 97 0 98 1;
#X connect 98 0 122 5;
#X connect 99 0 97 0;
#X connect 100 0 101 1;
#X connect 101 0 122 6;
#X connect 102 0 100 0;
#X connect 103 0 104 1;
#X connect 104 0 122 7;
#X connect 105 0 103 0;
#X connect 106 0 83 0;
#X connect 107 0 84 0;
#X connect 108 0 86 0;
#X connect 109 0 87 0;
#X connect 110 0 89 0;
#X connect 111 0 90 0;
#X connect 112 0 92 0;
#X connect 113 0 93 0;
#X connect 114 0 95 0;
#X connect 115 0 96 0;
#X connect 116 0 98 0;
#X connect 117 0 99 0;
#X connect 118 0 101 0;
#X connect 119 0 102 0;
#X connect 120 0 104 0;
#X connect 121 0 105 0;
