#N canvas 261 97 1656 776 10;
#X text 38 112 sound 1;
#N canvas 0 50 749 623 sound_levels 0;
#X msg 18 53 -99;
#X text 21 35 1;
#X msg 60 53 -99;
#X msg 99 53 -99;
#X msg 141 53 -99;
#X text 63 35 2;
#X text 102 35 3;
#X text 144 35 4;
#X msg 243 97 1 \$1;
#X obj 243 122 s \$0-ctl;
#X obj 372 339 r \$0-ctl;
#X obj 372 363 outlet;
#X obj 298 123 s \$0-ctl;
#X msg 298 98 2 \$1;
#X obj 354 123 s \$0-ctl;
#X obj 409 124 s \$0-ctl;
#X msg 354 98 3 \$1;
#X msg 409 99 4 \$1;
#X msg 17 112 -99;
#X msg 59 112 -99;
#X msg 98 112 -99;
#X msg 140 112 -99;
#X obj 239 207 s \$0-ctl;
#X obj 294 208 s \$0-ctl;
#X obj 350 208 s \$0-ctl;
#X obj 405 209 s \$0-ctl;
#X text 20 93 5;
#X text 62 93 6;
#X text 101 93 7;
#X text 143 93 8;
#X msg 239 182 5 \$1;
#X msg 294 183 6 \$1;
#X msg 350 183 7 \$1;
#X msg 405 184 8 \$1;
#X msg 16 171 -99;
#X msg 58 171 -99;
#X msg 97 171 -99;
#X msg 139 171 -99;
#X obj 246 296 s \$0-ctl;
#X obj 301 297 s \$0-ctl;
#X obj 357 297 s \$0-ctl;
#X obj 412 298 s \$0-ctl;
#X msg 15 232 -99;
#X msg 57 232 -99;
#X msg 96 232 -99;
#X msg 138 232 -99;
#X obj 257 425 s \$0-ctl;
#X obj 312 426 s \$0-ctl;
#X obj 368 426 s \$0-ctl;
#X obj 423 427 s \$0-ctl;
#X text 19 152 9;
#X text 61 152 10;
#X text 100 152 11;
#X text 142 152 12;
#X text 18 212 13;
#X text 60 212 14;
#X text 99 212 15;
#X text 141 212 16;
#X msg 246 271 9 \$1;
#X msg 301 272 10 \$1;
#X msg 357 272 11 \$1;
#X msg 412 273 12 \$1;
#X msg 257 400 13 \$1;
#X msg 312 401 14 \$1;
#X msg 368 401 15 \$1;
#X msg 423 402 16 \$1;
#X msg 14 288 -99;
#X msg 56 288 -99;
#X msg 95 288 -99;
#X msg 137 288 -99;
#X obj 258 491 s \$0-ctl;
#X obj 313 492 s \$0-ctl;
#X obj 369 492 s \$0-ctl;
#X obj 424 493 s \$0-ctl;
#X msg 14 344 -99;
#X msg 56 344 -99;
#X msg 95 344 -99;
#X msg 137 344 -99;
#X obj 257 587 s \$0-ctl;
#X obj 312 588 s \$0-ctl;
#X obj 368 588 s \$0-ctl;
#X obj 423 589 s \$0-ctl;
#X text 17 269 17;
#X text 59 269 18;
#X text 98 269 19;
#X text 140 269 20;
#X text 17 325 21;
#X text 59 325 22;
#X text 98 325 23;
#X text 140 325 24;
#X msg 258 466 17 \$1;
#X msg 313 467 18 \$1;
#X msg 369 467 19 \$1;
#X msg 424 468 20 \$1;
#X msg 257 562 21 \$1;
#X msg 312 563 22 \$1;
#X msg 368 563 23 \$1;
#X msg 423 564 24 \$1;
#X floatatom 18 75 5 0 0 0 - - -, f 5;
#X floatatom 60 76 5 0 0 0 - - -, f 5;
#X floatatom 99 76 5 0 0 0 - - -, f 5;
#X floatatom 141 76 5 0 0 0 - - -, f 5;
#X floatatom 17 134 5 0 0 0 - - -, f 5;
#X floatatom 59 135 5 0 0 0 - - -, f 5;
#X floatatom 98 135 5 0 0 0 - - -, f 5;
#X floatatom 140 135 5 0 0 0 - - -, f 5;
#X floatatom 16 192 5 0 0 0 - - -, f 5;
#X floatatom 58 193 5 0 0 0 - - -, f 5;
#X floatatom 97 193 5 0 0 0 - - -, f 5;
#X floatatom 139 193 5 0 0 0 - - -, f 5;
#X floatatom 15 253 5 0 0 0 - - -, f 5;
#X floatatom 57 254 5 0 0 0 - - -, f 5;
#X floatatom 96 254 5 0 0 0 - - -, f 5;
#X floatatom 138 254 5 0 0 0 - - -, f 5;
#X floatatom 14 311 5 0 0 0 - - -, f 5;
#X floatatom 56 312 5 0 0 0 - - -, f 5;
#X floatatom 95 312 5 0 0 0 - - -, f 5;
#X floatatom 137 312 5 0 0 0 - - -, f 5;
#X floatatom 14 366 5 0 0 0 - - -, f 5;
#X floatatom 56 367 5 0 0 0 - - -, f 5;
#X floatatom 95 367 5 0 0 0 - - -, f 5;
#X floatatom 137 367 5 0 0 0 - - -, f 5;
#X obj 286 4 inlet;
#X connect 0 0 8 0;
#X connect 0 0 98 0;
#X connect 2 0 13 0;
#X connect 2 0 99 0;
#X connect 3 0 16 0;
#X connect 3 0 100 0;
#X connect 4 0 17 0;
#X connect 4 0 101 0;
#X connect 8 0 9 0;
#X connect 10 0 11 0;
#X connect 13 0 12 0;
#X connect 16 0 14 0;
#X connect 17 0 15 0;
#X connect 18 0 30 0;
#X connect 18 0 102 0;
#X connect 19 0 31 0;
#X connect 19 0 103 0;
#X connect 20 0 32 0;
#X connect 20 0 104 0;
#X connect 21 0 33 0;
#X connect 21 0 105 0;
#X connect 30 0 22 0;
#X connect 31 0 23 0;
#X connect 32 0 24 0;
#X connect 33 0 25 0;
#X connect 34 0 58 0;
#X connect 34 0 106 0;
#X connect 35 0 59 0;
#X connect 35 0 107 0;
#X connect 36 0 60 0;
#X connect 36 0 108 0;
#X connect 37 0 61 0;
#X connect 37 0 109 0;
#X connect 42 0 62 0;
#X connect 42 0 110 0;
#X connect 43 0 63 0;
#X connect 43 0 111 0;
#X connect 44 0 64 0;
#X connect 44 0 112 0;
#X connect 45 0 65 0;
#X connect 45 0 113 0;
#X connect 58 0 38 0;
#X connect 59 0 39 0;
#X connect 60 0 40 0;
#X connect 61 0 41 0;
#X connect 62 0 46 0;
#X connect 63 0 47 0;
#X connect 64 0 48 0;
#X connect 65 0 49 0;
#X connect 66 0 90 0;
#X connect 66 0 114 0;
#X connect 67 0 91 0;
#X connect 67 0 115 0;
#X connect 68 0 92 0;
#X connect 68 0 116 0;
#X connect 69 0 93 0;
#X connect 69 0 117 0;
#X connect 74 0 94 0;
#X connect 74 0 118 0;
#X connect 75 0 95 0;
#X connect 75 0 119 0;
#X connect 76 0 96 0;
#X connect 76 0 120 0;
#X connect 77 0 97 0;
#X connect 77 0 121 0;
#X connect 90 0 70 0;
#X connect 91 0 71 0;
#X connect 92 0 72 0;
#X connect 93 0 73 0;
#X connect 94 0 78 0;
#X connect 95 0 79 0;
#X connect 96 0 80 0;
#X connect 97 0 81 0;
#X connect 122 0 0 0;
#X connect 122 0 2 0;
#X connect 122 0 3 0;
#X connect 122 0 4 0;
#X connect 122 0 18 0;
#X connect 122 0 19 0;
#X connect 122 0 20 0;
#X connect 122 0 21 0;
#X connect 122 0 34 0;
#X connect 122 0 35 0;
#X connect 122 0 36 0;
#X connect 122 0 37 0;
#X connect 122 0 42 0;
#X connect 122 0 43 0;
#X connect 122 0 44 0;
#X connect 122 0 45 0;
#X connect 122 0 66 0;
#X connect 122 0 67 0;
#X connect 122 0 68 0;
#X connect 122 0 69 0;
#X connect 122 0 74 0;
#X connect 122 0 75 0;
#X connect 122 0 76 0;
#X connect 122 0 77 0;
#X coords 0 -1 1 1 170 375 1 10 25;
#X restore 39 149 pd sound_levels;
#X text 355 26 open subpatches to edit scene;
#X obj 39 542 s sound_1_ctl;
#N canvas 0 50 749 623 sound_levels 0;
#X msg 18 53 -99;
#X text 21 35 1;
#X msg 60 53 -99;
#X msg 99 53 -99;
#X msg 141 53 -99;
#X text 63 35 2;
#X text 102 35 3;
#X text 144 35 4;
#X msg 243 97 1 \$1;
#X obj 243 122 s \$0-ctl;
#X obj 372 339 r \$0-ctl;
#X obj 372 363 outlet;
#X obj 298 123 s \$0-ctl;
#X msg 298 98 2 \$1;
#X obj 354 123 s \$0-ctl;
#X obj 409 124 s \$0-ctl;
#X msg 354 98 3 \$1;
#X msg 409 99 4 \$1;
#X msg 17 112 -99;
#X msg 59 112 -99;
#X msg 98 112 -99;
#X msg 140 112 -99;
#X obj 239 207 s \$0-ctl;
#X obj 294 208 s \$0-ctl;
#X obj 350 208 s \$0-ctl;
#X obj 405 209 s \$0-ctl;
#X text 20 93 5;
#X text 62 93 6;
#X text 101 93 7;
#X text 143 93 8;
#X msg 239 182 5 \$1;
#X msg 294 183 6 \$1;
#X msg 350 183 7 \$1;
#X msg 405 184 8 \$1;
#X msg 16 171 -99;
#X msg 58 171 -99;
#X msg 97 171 -99;
#X msg 139 171 -99;
#X obj 246 296 s \$0-ctl;
#X obj 301 297 s \$0-ctl;
#X obj 357 297 s \$0-ctl;
#X obj 412 298 s \$0-ctl;
#X msg 15 232 -99;
#X msg 57 232 -99;
#X msg 96 232 -99;
#X msg 138 232 -99;
#X obj 257 425 s \$0-ctl;
#X obj 312 426 s \$0-ctl;
#X obj 368 426 s \$0-ctl;
#X obj 423 427 s \$0-ctl;
#X text 19 152 9;
#X text 61 152 10;
#X text 100 152 11;
#X text 142 152 12;
#X text 18 212 13;
#X text 60 212 14;
#X text 99 212 15;
#X text 141 212 16;
#X msg 246 271 9 \$1;
#X msg 301 272 10 \$1;
#X msg 357 272 11 \$1;
#X msg 412 273 12 \$1;
#X msg 257 400 13 \$1;
#X msg 312 401 14 \$1;
#X msg 368 401 15 \$1;
#X msg 423 402 16 \$1;
#X msg 14 288 -99;
#X msg 56 288 -99;
#X msg 95 288 -99;
#X msg 137 288 -99;
#X obj 258 491 s \$0-ctl;
#X obj 313 492 s \$0-ctl;
#X obj 369 492 s \$0-ctl;
#X obj 424 493 s \$0-ctl;
#X msg 14 344 -99;
#X msg 56 344 -99;
#X msg 95 344 -99;
#X msg 137 344 -99;
#X obj 257 587 s \$0-ctl;
#X obj 312 588 s \$0-ctl;
#X obj 368 588 s \$0-ctl;
#X obj 423 589 s \$0-ctl;
#X text 17 269 17;
#X text 59 269 18;
#X text 98 269 19;
#X text 140 269 20;
#X text 17 325 21;
#X text 59 325 22;
#X text 98 325 23;
#X text 140 325 24;
#X msg 258 466 17 \$1;
#X msg 313 467 18 \$1;
#X msg 369 467 19 \$1;
#X msg 424 468 20 \$1;
#X msg 257 562 21 \$1;
#X msg 312 563 22 \$1;
#X msg 368 563 23 \$1;
#X msg 423 564 24 \$1;
#X floatatom 18 75 5 0 0 0 - - -, f 5;
#X floatatom 60 76 5 0 0 0 - - -, f 5;
#X floatatom 99 76 5 0 0 0 - - -, f 5;
#X floatatom 141 76 5 0 0 0 - - -, f 5;
#X floatatom 17 134 5 0 0 0 - - -, f 5;
#X floatatom 59 135 5 0 0 0 - - -, f 5;
#X floatatom 98 135 5 0 0 0 - - -, f 5;
#X floatatom 140 135 5 0 0 0 - - -, f 5;
#X floatatom 16 192 5 0 0 0 - - -, f 5;
#X floatatom 58 193 5 0 0 0 - - -, f 5;
#X floatatom 97 193 5 0 0 0 - - -, f 5;
#X floatatom 139 193 5 0 0 0 - - -, f 5;
#X floatatom 15 253 5 0 0 0 - - -, f 5;
#X floatatom 57 254 5 0 0 0 - - -, f 5;
#X floatatom 96 254 5 0 0 0 - - -, f 5;
#X floatatom 138 254 5 0 0 0 - - -, f 5;
#X floatatom 14 311 5 0 0 0 - - -, f 5;
#X floatatom 56 312 5 0 0 0 - - -, f 5;
#X floatatom 95 312 5 0 0 0 - - -, f 5;
#X floatatom 137 312 5 0 0 0 - - -, f 5;
#X floatatom 14 366 5 0 0 0 - - -, f 5;
#X floatatom 56 367 5 0 0 0 - - -, f 5;
#X floatatom 95 367 5 0 0 0 - - -, f 5;
#X floatatom 137 367 5 0 0 0 - - -, f 5;
#X obj 286 4 inlet;
#X connect 0 0 8 0;
#X connect 0 0 98 0;
#X connect 2 0 13 0;
#X connect 2 0 99 0;
#X connect 3 0 16 0;
#X connect 3 0 100 0;
#X connect 4 0 17 0;
#X connect 4 0 101 0;
#X connect 8 0 9 0;
#X connect 10 0 11 0;
#X connect 13 0 12 0;
#X connect 16 0 14 0;
#X connect 17 0 15 0;
#X connect 18 0 30 0;
#X connect 18 0 102 0;
#X connect 19 0 31 0;
#X connect 19 0 103 0;
#X connect 20 0 32 0;
#X connect 20 0 104 0;
#X connect 21 0 33 0;
#X connect 21 0 105 0;
#X connect 30 0 22 0;
#X connect 31 0 23 0;
#X connect 32 0 24 0;
#X connect 33 0 25 0;
#X connect 34 0 58 0;
#X connect 34 0 106 0;
#X connect 35 0 59 0;
#X connect 35 0 107 0;
#X connect 36 0 60 0;
#X connect 36 0 108 0;
#X connect 37 0 61 0;
#X connect 37 0 109 0;
#X connect 42 0 62 0;
#X connect 42 0 110 0;
#X connect 43 0 63 0;
#X connect 43 0 111 0;
#X connect 44 0 64 0;
#X connect 44 0 112 0;
#X connect 45 0 65 0;
#X connect 45 0 113 0;
#X connect 58 0 38 0;
#X connect 59 0 39 0;
#X connect 60 0 40 0;
#X connect 61 0 41 0;
#X connect 62 0 46 0;
#X connect 63 0 47 0;
#X connect 64 0 48 0;
#X connect 65 0 49 0;
#X connect 66 0 90 0;
#X connect 66 0 114 0;
#X connect 67 0 91 0;
#X connect 67 0 115 0;
#X connect 68 0 92 0;
#X connect 68 0 116 0;
#X connect 69 0 93 0;
#X connect 69 0 117 0;
#X connect 74 0 94 0;
#X connect 74 0 118 0;
#X connect 75 0 95 0;
#X connect 75 0 119 0;
#X connect 76 0 96 0;
#X connect 76 0 120 0;
#X connect 77 0 97 0;
#X connect 77 0 121 0;
#X connect 90 0 70 0;
#X connect 91 0 71 0;
#X connect 92 0 72 0;
#X connect 93 0 73 0;
#X connect 94 0 78 0;
#X connect 95 0 79 0;
#X connect 96 0 80 0;
#X connect 97 0 81 0;
#X connect 122 0 0 0;
#X connect 122 0 2 0;
#X connect 122 0 3 0;
#X connect 122 0 4 0;
#X connect 122 0 18 0;
#X connect 122 0 19 0;
#X connect 122 0 20 0;
#X connect 122 0 21 0;
#X connect 122 0 34 0;
#X connect 122 0 35 0;
#X connect 122 0 36 0;
#X connect 122 0 37 0;
#X connect 122 0 42 0;
#X connect 122 0 43 0;
#X connect 122 0 44 0;
#X connect 122 0 45 0;
#X connect 122 0 66 0;
#X connect 122 0 67 0;
#X connect 122 0 68 0;
#X connect 122 0 69 0;
#X connect 122 0 74 0;
#X connect 122 0 75 0;
#X connect 122 0 76 0;
#X connect 122 0 77 0;
#X coords 0 -1 1 1 170 375 1 10 25;
#X restore 233 146 pd sound_levels;
#X obj 233 539 s sound_2_ctl;
#X text 232 109 sound 2;
#X obj 804 -20 bng 15 250 50 0 empty empty empty 17 7 0 10 -262144
-1 -1;
#X obj 804 -69 inlet;
#N canvas 0 50 749 623 sound_levels 0;
#X msg 18 53 -99;
#X text 21 35 1;
#X msg 60 53 -99;
#X msg 99 53 -99;
#X msg 141 53 -99;
#X text 63 35 2;
#X text 102 35 3;
#X text 144 35 4;
#X msg 243 97 1 \$1;
#X obj 243 122 s \$0-ctl;
#X obj 372 339 r \$0-ctl;
#X obj 372 363 outlet;
#X obj 298 123 s \$0-ctl;
#X msg 298 98 2 \$1;
#X obj 354 123 s \$0-ctl;
#X obj 409 124 s \$0-ctl;
#X msg 354 98 3 \$1;
#X msg 409 99 4 \$1;
#X msg 17 112 -99;
#X msg 59 112 -99;
#X msg 98 112 -99;
#X msg 140 112 -99;
#X obj 239 207 s \$0-ctl;
#X obj 294 208 s \$0-ctl;
#X obj 350 208 s \$0-ctl;
#X obj 405 209 s \$0-ctl;
#X text 20 93 5;
#X text 62 93 6;
#X text 101 93 7;
#X text 143 93 8;
#X msg 239 182 5 \$1;
#X msg 294 183 6 \$1;
#X msg 350 183 7 \$1;
#X msg 405 184 8 \$1;
#X msg 16 171 -99;
#X msg 58 171 -99;
#X msg 97 171 -99;
#X msg 139 171 -99;
#X obj 246 296 s \$0-ctl;
#X obj 301 297 s \$0-ctl;
#X obj 357 297 s \$0-ctl;
#X obj 412 298 s \$0-ctl;
#X msg 15 232 -99;
#X msg 57 232 -99;
#X msg 96 232 -99;
#X msg 138 232 -99;
#X obj 257 425 s \$0-ctl;
#X obj 312 426 s \$0-ctl;
#X obj 368 426 s \$0-ctl;
#X obj 423 427 s \$0-ctl;
#X text 19 152 9;
#X text 61 152 10;
#X text 100 152 11;
#X text 142 152 12;
#X text 18 212 13;
#X text 60 212 14;
#X text 99 212 15;
#X text 141 212 16;
#X msg 246 271 9 \$1;
#X msg 301 272 10 \$1;
#X msg 357 272 11 \$1;
#X msg 412 273 12 \$1;
#X msg 257 400 13 \$1;
#X msg 312 401 14 \$1;
#X msg 368 401 15 \$1;
#X msg 423 402 16 \$1;
#X msg 14 288 -99;
#X msg 56 288 -99;
#X msg 95 288 -99;
#X msg 137 288 -99;
#X obj 258 491 s \$0-ctl;
#X obj 313 492 s \$0-ctl;
#X obj 369 492 s \$0-ctl;
#X obj 424 493 s \$0-ctl;
#X msg 14 344 -99;
#X msg 56 344 -99;
#X msg 95 344 -99;
#X msg 137 344 -99;
#X obj 257 587 s \$0-ctl;
#X obj 312 588 s \$0-ctl;
#X obj 368 588 s \$0-ctl;
#X obj 423 589 s \$0-ctl;
#X text 17 269 17;
#X text 59 269 18;
#X text 98 269 19;
#X text 140 269 20;
#X text 17 325 21;
#X text 59 325 22;
#X text 98 325 23;
#X text 140 325 24;
#X msg 258 466 17 \$1;
#X msg 313 467 18 \$1;
#X msg 369 467 19 \$1;
#X msg 424 468 20 \$1;
#X msg 257 562 21 \$1;
#X msg 312 563 22 \$1;
#X msg 368 563 23 \$1;
#X msg 423 564 24 \$1;
#X floatatom 18 75 5 0 0 0 - - -, f 5;
#X floatatom 60 76 5 0 0 0 - - -, f 5;
#X floatatom 99 76 5 0 0 0 - - -, f 5;
#X floatatom 141 76 5 0 0 0 - - -, f 5;
#X floatatom 17 134 5 0 0 0 - - -, f 5;
#X floatatom 59 135 5 0 0 0 - - -, f 5;
#X floatatom 98 135 5 0 0 0 - - -, f 5;
#X floatatom 140 135 5 0 0 0 - - -, f 5;
#X floatatom 16 192 5 0 0 0 - - -, f 5;
#X floatatom 58 193 5 0 0 0 - - -, f 5;
#X floatatom 97 193 5 0 0 0 - - -, f 5;
#X floatatom 139 193 5 0 0 0 - - -, f 5;
#X floatatom 15 253 5 0 0 0 - - -, f 5;
#X floatatom 57 254 5 0 0 0 - - -, f 5;
#X floatatom 96 254 5 0 0 0 - - -, f 5;
#X floatatom 138 254 5 0 0 0 - - -, f 5;
#X floatatom 14 311 5 0 0 0 - - -, f 5;
#X floatatom 56 312 5 0 0 0 - - -, f 5;
#X floatatom 95 312 5 0 0 0 - - -, f 5;
#X floatatom 137 312 5 0 0 0 - - -, f 5;
#X floatatom 14 366 5 0 0 0 - - -, f 5;
#X floatatom 56 367 5 0 0 0 - - -, f 5;
#X floatatom 95 367 5 0 0 0 - - -, f 5;
#X floatatom 137 367 5 0 0 0 - - -, f 5;
#X obj 286 4 inlet;
#X connect 0 0 8 0;
#X connect 0 0 98 0;
#X connect 2 0 13 0;
#X connect 2 0 99 0;
#X connect 3 0 16 0;
#X connect 3 0 100 0;
#X connect 4 0 17 0;
#X connect 4 0 101 0;
#X connect 8 0 9 0;
#X connect 10 0 11 0;
#X connect 13 0 12 0;
#X connect 16 0 14 0;
#X connect 17 0 15 0;
#X connect 18 0 30 0;
#X connect 18 0 102 0;
#X connect 19 0 31 0;
#X connect 19 0 103 0;
#X connect 20 0 32 0;
#X connect 20 0 104 0;
#X connect 21 0 33 0;
#X connect 21 0 105 0;
#X connect 30 0 22 0;
#X connect 31 0 23 0;
#X connect 32 0 24 0;
#X connect 33 0 25 0;
#X connect 34 0 58 0;
#X connect 34 0 106 0;
#X connect 35 0 59 0;
#X connect 35 0 107 0;
#X connect 36 0 60 0;
#X connect 36 0 108 0;
#X connect 37 0 61 0;
#X connect 37 0 109 0;
#X connect 42 0 62 0;
#X connect 42 0 110 0;
#X connect 43 0 63 0;
#X connect 43 0 111 0;
#X connect 44 0 64 0;
#X connect 44 0 112 0;
#X connect 45 0 65 0;
#X connect 45 0 113 0;
#X connect 58 0 38 0;
#X connect 59 0 39 0;
#X connect 60 0 40 0;
#X connect 61 0 41 0;
#X connect 62 0 46 0;
#X connect 63 0 47 0;
#X connect 64 0 48 0;
#X connect 65 0 49 0;
#X connect 66 0 90 0;
#X connect 66 0 114 0;
#X connect 67 0 91 0;
#X connect 67 0 115 0;
#X connect 68 0 92 0;
#X connect 68 0 116 0;
#X connect 69 0 93 0;
#X connect 69 0 117 0;
#X connect 74 0 94 0;
#X connect 74 0 118 0;
#X connect 75 0 95 0;
#X connect 75 0 119 0;
#X connect 76 0 96 0;
#X connect 76 0 120 0;
#X connect 77 0 97 0;
#X connect 77 0 121 0;
#X connect 90 0 70 0;
#X connect 91 0 71 0;
#X connect 92 0 72 0;
#X connect 93 0 73 0;
#X connect 94 0 78 0;
#X connect 95 0 79 0;
#X connect 96 0 80 0;
#X connect 97 0 81 0;
#X connect 122 0 0 0;
#X connect 122 0 2 0;
#X connect 122 0 3 0;
#X connect 122 0 4 0;
#X connect 122 0 18 0;
#X connect 122 0 19 0;
#X connect 122 0 20 0;
#X connect 122 0 21 0;
#X connect 122 0 34 0;
#X connect 122 0 35 0;
#X connect 122 0 36 0;
#X connect 122 0 37 0;
#X connect 122 0 42 0;
#X connect 122 0 43 0;
#X connect 122 0 44 0;
#X connect 122 0 45 0;
#X connect 122 0 66 0;
#X connect 122 0 67 0;
#X connect 122 0 68 0;
#X connect 122 0 69 0;
#X connect 122 0 74 0;
#X connect 122 0 75 0;
#X connect 122 0 76 0;
#X connect 122 0 77 0;
#X coords 0 -1 1 1 170 375 1 10 25;
#X restore 427 149 pd sound_levels;
#N canvas 0 50 749 623 sound_levels 0;
#X msg 18 53 -99;
#X text 21 35 1;
#X msg 60 53 -99;
#X msg 99 53 -99;
#X msg 141 53 -99;
#X text 63 35 2;
#X text 102 35 3;
#X text 144 35 4;
#X msg 243 97 1 \$1;
#X obj 243 122 s \$0-ctl;
#X obj 372 339 r \$0-ctl;
#X obj 372 363 outlet;
#X obj 298 123 s \$0-ctl;
#X msg 298 98 2 \$1;
#X obj 354 123 s \$0-ctl;
#X obj 409 124 s \$0-ctl;
#X msg 354 98 3 \$1;
#X msg 409 99 4 \$1;
#X msg 17 112 -99;
#X msg 59 112 -99;
#X msg 98 112 -99;
#X msg 140 112 -99;
#X obj 239 207 s \$0-ctl;
#X obj 294 208 s \$0-ctl;
#X obj 350 208 s \$0-ctl;
#X obj 405 209 s \$0-ctl;
#X text 20 93 5;
#X text 62 93 6;
#X text 101 93 7;
#X text 143 93 8;
#X msg 239 182 5 \$1;
#X msg 294 183 6 \$1;
#X msg 350 183 7 \$1;
#X msg 405 184 8 \$1;
#X msg 16 171 -99;
#X msg 58 171 -99;
#X msg 97 171 -99;
#X msg 139 171 -99;
#X obj 246 296 s \$0-ctl;
#X obj 301 297 s \$0-ctl;
#X obj 357 297 s \$0-ctl;
#X obj 412 298 s \$0-ctl;
#X msg 15 232 -99;
#X msg 57 232 -99;
#X msg 96 232 -99;
#X msg 138 232 -99;
#X obj 257 425 s \$0-ctl;
#X obj 312 426 s \$0-ctl;
#X obj 368 426 s \$0-ctl;
#X obj 423 427 s \$0-ctl;
#X text 19 152 9;
#X text 61 152 10;
#X text 100 152 11;
#X text 142 152 12;
#X text 18 212 13;
#X text 60 212 14;
#X text 99 212 15;
#X text 141 212 16;
#X msg 246 271 9 \$1;
#X msg 301 272 10 \$1;
#X msg 357 272 11 \$1;
#X msg 412 273 12 \$1;
#X msg 257 400 13 \$1;
#X msg 312 401 14 \$1;
#X msg 368 401 15 \$1;
#X msg 423 402 16 \$1;
#X msg 14 288 -99;
#X msg 56 288 -99;
#X msg 95 288 -99;
#X msg 137 288 -99;
#X obj 258 491 s \$0-ctl;
#X obj 313 492 s \$0-ctl;
#X obj 369 492 s \$0-ctl;
#X obj 424 493 s \$0-ctl;
#X msg 14 344 -99;
#X msg 56 344 -99;
#X msg 95 344 -99;
#X msg 137 344 -99;
#X obj 257 587 s \$0-ctl;
#X obj 312 588 s \$0-ctl;
#X obj 368 588 s \$0-ctl;
#X obj 423 589 s \$0-ctl;
#X text 17 269 17;
#X text 59 269 18;
#X text 98 269 19;
#X text 140 269 20;
#X text 17 325 21;
#X text 59 325 22;
#X text 98 325 23;
#X text 140 325 24;
#X msg 258 466 17 \$1;
#X msg 313 467 18 \$1;
#X msg 369 467 19 \$1;
#X msg 424 468 20 \$1;
#X msg 257 562 21 \$1;
#X msg 312 563 22 \$1;
#X msg 368 563 23 \$1;
#X msg 423 564 24 \$1;
#X floatatom 18 75 5 0 0 0 - - -, f 5;
#X floatatom 60 76 5 0 0 0 - - -, f 5;
#X floatatom 99 76 5 0 0 0 - - -, f 5;
#X floatatom 141 76 5 0 0 0 - - -, f 5;
#X floatatom 17 134 5 0 0 0 - - -, f 5;
#X floatatom 59 135 5 0 0 0 - - -, f 5;
#X floatatom 98 135 5 0 0 0 - - -, f 5;
#X floatatom 140 135 5 0 0 0 - - -, f 5;
#X floatatom 16 192 5 0 0 0 - - -, f 5;
#X floatatom 58 193 5 0 0 0 - - -, f 5;
#X floatatom 97 193 5 0 0 0 - - -, f 5;
#X floatatom 139 193 5 0 0 0 - - -, f 5;
#X floatatom 15 253 5 0 0 0 - - -, f 5;
#X floatatom 57 254 5 0 0 0 - - -, f 5;
#X floatatom 96 254 5 0 0 0 - - -, f 5;
#X floatatom 138 254 5 0 0 0 - - -, f 5;
#X floatatom 14 311 5 0 0 0 - - -, f 5;
#X floatatom 56 312 5 0 0 0 - - -, f 5;
#X floatatom 95 312 5 0 0 0 - - -, f 5;
#X floatatom 137 312 5 0 0 0 - - -, f 5;
#X floatatom 14 366 5 0 0 0 - - -, f 5;
#X floatatom 56 367 5 0 0 0 - - -, f 5;
#X floatatom 95 367 5 0 0 0 - - -, f 5;
#X floatatom 137 367 5 0 0 0 - - -, f 5;
#X obj 286 4 inlet;
#X connect 0 0 8 0;
#X connect 0 0 98 0;
#X connect 2 0 13 0;
#X connect 2 0 99 0;
#X connect 3 0 16 0;
#X connect 3 0 100 0;
#X connect 4 0 17 0;
#X connect 4 0 101 0;
#X connect 8 0 9 0;
#X connect 10 0 11 0;
#X connect 13 0 12 0;
#X connect 16 0 14 0;
#X connect 17 0 15 0;
#X connect 18 0 30 0;
#X connect 18 0 102 0;
#X connect 19 0 31 0;
#X connect 19 0 103 0;
#X connect 20 0 32 0;
#X connect 20 0 104 0;
#X connect 21 0 33 0;
#X connect 21 0 105 0;
#X connect 30 0 22 0;
#X connect 31 0 23 0;
#X connect 32 0 24 0;
#X connect 33 0 25 0;
#X connect 34 0 58 0;
#X connect 34 0 106 0;
#X connect 35 0 59 0;
#X connect 35 0 107 0;
#X connect 36 0 60 0;
#X connect 36 0 108 0;
#X connect 37 0 61 0;
#X connect 37 0 109 0;
#X connect 42 0 62 0;
#X connect 42 0 110 0;
#X connect 43 0 63 0;
#X connect 43 0 111 0;
#X connect 44 0 64 0;
#X connect 44 0 112 0;
#X connect 45 0 65 0;
#X connect 45 0 113 0;
#X connect 58 0 38 0;
#X connect 59 0 39 0;
#X connect 60 0 40 0;
#X connect 61 0 41 0;
#X connect 62 0 46 0;
#X connect 63 0 47 0;
#X connect 64 0 48 0;
#X connect 65 0 49 0;
#X connect 66 0 90 0;
#X connect 66 0 114 0;
#X connect 67 0 91 0;
#X connect 67 0 115 0;
#X connect 68 0 92 0;
#X connect 68 0 116 0;
#X connect 69 0 93 0;
#X connect 69 0 117 0;
#X connect 74 0 94 0;
#X connect 74 0 118 0;
#X connect 75 0 95 0;
#X connect 75 0 119 0;
#X connect 76 0 96 0;
#X connect 76 0 120 0;
#X connect 77 0 97 0;
#X connect 77 0 121 0;
#X connect 90 0 70 0;
#X connect 91 0 71 0;
#X connect 92 0 72 0;
#X connect 93 0 73 0;
#X connect 94 0 78 0;
#X connect 95 0 79 0;
#X connect 96 0 80 0;
#X connect 97 0 81 0;
#X connect 122 0 0 0;
#X connect 122 0 2 0;
#X connect 122 0 3 0;
#X connect 122 0 4 0;
#X connect 122 0 18 0;
#X connect 122 0 19 0;
#X connect 122 0 20 0;
#X connect 122 0 21 0;
#X connect 122 0 34 0;
#X connect 122 0 35 0;
#X connect 122 0 36 0;
#X connect 122 0 37 0;
#X connect 122 0 42 0;
#X connect 122 0 43 0;
#X connect 122 0 44 0;
#X connect 122 0 45 0;
#X connect 122 0 66 0;
#X connect 122 0 67 0;
#X connect 122 0 68 0;
#X connect 122 0 69 0;
#X connect 122 0 74 0;
#X connect 122 0 75 0;
#X connect 122 0 76 0;
#X connect 122 0 77 0;
#X coords 0 -1 1 1 170 375 1 10 25;
#X restore 621 146 pd sound_levels;
#X text 426 112 sound 3;
#X text 620 109 sound 4;
#X obj 427 542 s sound_3_ctl;
#X obj 621 539 s sound_4_ctl;
#N canvas 0 50 749 623 sound_levels 0;
#X msg 18 53 -99;
#X text 21 35 1;
#X msg 60 53 -99;
#X msg 99 53 -99;
#X msg 141 53 -99;
#X text 63 35 2;
#X text 102 35 3;
#X text 144 35 4;
#X msg 243 97 1 \$1;
#X obj 243 122 s \$0-ctl;
#X obj 372 339 r \$0-ctl;
#X obj 372 363 outlet;
#X obj 298 123 s \$0-ctl;
#X msg 298 98 2 \$1;
#X obj 354 123 s \$0-ctl;
#X obj 409 124 s \$0-ctl;
#X msg 354 98 3 \$1;
#X msg 409 99 4 \$1;
#X msg 17 112 -99;
#X msg 59 112 -99;
#X msg 98 112 -99;
#X msg 140 112 -99;
#X obj 239 207 s \$0-ctl;
#X obj 294 208 s \$0-ctl;
#X obj 350 208 s \$0-ctl;
#X obj 405 209 s \$0-ctl;
#X text 20 93 5;
#X text 62 93 6;
#X text 101 93 7;
#X text 143 93 8;
#X msg 239 182 5 \$1;
#X msg 294 183 6 \$1;
#X msg 350 183 7 \$1;
#X msg 405 184 8 \$1;
#X msg 16 171 -99;
#X msg 58 171 -99;
#X msg 97 171 -99;
#X msg 139 171 -99;
#X obj 246 296 s \$0-ctl;
#X obj 301 297 s \$0-ctl;
#X obj 357 297 s \$0-ctl;
#X obj 412 298 s \$0-ctl;
#X msg 15 232 -99;
#X msg 57 232 -99;
#X msg 96 232 -99;
#X msg 138 232 -99;
#X obj 257 425 s \$0-ctl;
#X obj 312 426 s \$0-ctl;
#X obj 368 426 s \$0-ctl;
#X obj 423 427 s \$0-ctl;
#X text 19 152 9;
#X text 61 152 10;
#X text 100 152 11;
#X text 142 152 12;
#X text 18 212 13;
#X text 60 212 14;
#X text 99 212 15;
#X text 141 212 16;
#X msg 246 271 9 \$1;
#X msg 301 272 10 \$1;
#X msg 357 272 11 \$1;
#X msg 412 273 12 \$1;
#X msg 257 400 13 \$1;
#X msg 312 401 14 \$1;
#X msg 368 401 15 \$1;
#X msg 423 402 16 \$1;
#X msg 14 288 -99;
#X msg 56 288 -99;
#X msg 95 288 -99;
#X msg 137 288 -99;
#X obj 258 491 s \$0-ctl;
#X obj 313 492 s \$0-ctl;
#X obj 369 492 s \$0-ctl;
#X obj 424 493 s \$0-ctl;
#X msg 14 344 -99;
#X msg 56 344 -99;
#X msg 95 344 -99;
#X msg 137 344 -99;
#X obj 257 587 s \$0-ctl;
#X obj 312 588 s \$0-ctl;
#X obj 368 588 s \$0-ctl;
#X obj 423 589 s \$0-ctl;
#X text 17 269 17;
#X text 59 269 18;
#X text 98 269 19;
#X text 140 269 20;
#X text 17 325 21;
#X text 59 325 22;
#X text 98 325 23;
#X text 140 325 24;
#X msg 258 466 17 \$1;
#X msg 313 467 18 \$1;
#X msg 369 467 19 \$1;
#X msg 424 468 20 \$1;
#X msg 257 562 21 \$1;
#X msg 312 563 22 \$1;
#X msg 368 563 23 \$1;
#X msg 423 564 24 \$1;
#X floatatom 18 75 5 0 0 0 - - -, f 5;
#X floatatom 60 76 5 0 0 0 - - -, f 5;
#X floatatom 99 76 5 0 0 0 - - -, f 5;
#X floatatom 141 76 5 0 0 0 - - -, f 5;
#X floatatom 17 134 5 0 0 0 - - -, f 5;
#X floatatom 59 135 5 0 0 0 - - -, f 5;
#X floatatom 98 135 5 0 0 0 - - -, f 5;
#X floatatom 140 135 5 0 0 0 - - -, f 5;
#X floatatom 16 192 5 0 0 0 - - -, f 5;
#X floatatom 58 193 5 0 0 0 - - -, f 5;
#X floatatom 97 193 5 0 0 0 - - -, f 5;
#X floatatom 139 193 5 0 0 0 - - -, f 5;
#X floatatom 15 253 5 0 0 0 - - -, f 5;
#X floatatom 57 254 5 0 0 0 - - -, f 5;
#X floatatom 96 254 5 0 0 0 - - -, f 5;
#X floatatom 138 254 5 0 0 0 - - -, f 5;
#X floatatom 14 311 5 0 0 0 - - -, f 5;
#X floatatom 56 312 5 0 0 0 - - -, f 5;
#X floatatom 95 312 5 0 0 0 - - -, f 5;
#X floatatom 137 312 5 0 0 0 - - -, f 5;
#X floatatom 14 366 5 0 0 0 - - -, f 5;
#X floatatom 56 367 5 0 0 0 - - -, f 5;
#X floatatom 95 367 5 0 0 0 - - -, f 5;
#X floatatom 137 367 5 0 0 0 - - -, f 5;
#X obj 286 4 inlet;
#X connect 0 0 8 0;
#X connect 0 0 98 0;
#X connect 2 0 13 0;
#X connect 2 0 99 0;
#X connect 3 0 16 0;
#X connect 3 0 100 0;
#X connect 4 0 17 0;
#X connect 4 0 101 0;
#X connect 8 0 9 0;
#X connect 10 0 11 0;
#X connect 13 0 12 0;
#X connect 16 0 14 0;
#X connect 17 0 15 0;
#X connect 18 0 30 0;
#X connect 18 0 102 0;
#X connect 19 0 31 0;
#X connect 19 0 103 0;
#X connect 20 0 32 0;
#X connect 20 0 104 0;
#X connect 21 0 33 0;
#X connect 21 0 105 0;
#X connect 30 0 22 0;
#X connect 31 0 23 0;
#X connect 32 0 24 0;
#X connect 33 0 25 0;
#X connect 34 0 58 0;
#X connect 34 0 106 0;
#X connect 35 0 59 0;
#X connect 35 0 107 0;
#X connect 36 0 60 0;
#X connect 36 0 108 0;
#X connect 37 0 61 0;
#X connect 37 0 109 0;
#X connect 42 0 62 0;
#X connect 42 0 110 0;
#X connect 43 0 63 0;
#X connect 43 0 111 0;
#X connect 44 0 64 0;
#X connect 44 0 112 0;
#X connect 45 0 65 0;
#X connect 45 0 113 0;
#X connect 58 0 38 0;
#X connect 59 0 39 0;
#X connect 60 0 40 0;
#X connect 61 0 41 0;
#X connect 62 0 46 0;
#X connect 63 0 47 0;
#X connect 64 0 48 0;
#X connect 65 0 49 0;
#X connect 66 0 90 0;
#X connect 66 0 114 0;
#X connect 67 0 91 0;
#X connect 67 0 115 0;
#X connect 68 0 92 0;
#X connect 68 0 116 0;
#X connect 69 0 93 0;
#X connect 69 0 117 0;
#X connect 74 0 94 0;
#X connect 74 0 118 0;
#X connect 75 0 95 0;
#X connect 75 0 119 0;
#X connect 76 0 96 0;
#X connect 76 0 120 0;
#X connect 77 0 97 0;
#X connect 77 0 121 0;
#X connect 90 0 70 0;
#X connect 91 0 71 0;
#X connect 92 0 72 0;
#X connect 93 0 73 0;
#X connect 94 0 78 0;
#X connect 95 0 79 0;
#X connect 96 0 80 0;
#X connect 97 0 81 0;
#X connect 122 0 0 0;
#X connect 122 0 2 0;
#X connect 122 0 3 0;
#X connect 122 0 4 0;
#X connect 122 0 18 0;
#X connect 122 0 19 0;
#X connect 122 0 20 0;
#X connect 122 0 21 0;
#X connect 122 0 34 0;
#X connect 122 0 35 0;
#X connect 122 0 36 0;
#X connect 122 0 37 0;
#X connect 122 0 42 0;
#X connect 122 0 43 0;
#X connect 122 0 44 0;
#X connect 122 0 45 0;
#X connect 122 0 66 0;
#X connect 122 0 67 0;
#X connect 122 0 68 0;
#X connect 122 0 69 0;
#X connect 122 0 74 0;
#X connect 122 0 75 0;
#X connect 122 0 76 0;
#X connect 122 0 77 0;
#X coords 0 -1 1 1 170 375 1 10 25;
#X restore 802 146 pd sound_levels;
#N canvas 0 50 749 623 sound_levels 0;
#X msg 18 53 -99;
#X text 21 35 1;
#X msg 60 53 -99;
#X msg 99 53 -99;
#X msg 141 53 -99;
#X text 63 35 2;
#X text 102 35 3;
#X text 144 35 4;
#X msg 243 97 1 \$1;
#X obj 243 122 s \$0-ctl;
#X obj 372 339 r \$0-ctl;
#X obj 372 363 outlet;
#X obj 298 123 s \$0-ctl;
#X msg 298 98 2 \$1;
#X obj 354 123 s \$0-ctl;
#X obj 409 124 s \$0-ctl;
#X msg 354 98 3 \$1;
#X msg 409 99 4 \$1;
#X msg 17 112 -99;
#X msg 59 112 -99;
#X msg 98 112 -99;
#X msg 140 112 -99;
#X obj 239 207 s \$0-ctl;
#X obj 294 208 s \$0-ctl;
#X obj 350 208 s \$0-ctl;
#X obj 405 209 s \$0-ctl;
#X text 20 93 5;
#X text 62 93 6;
#X text 101 93 7;
#X text 143 93 8;
#X msg 239 182 5 \$1;
#X msg 294 183 6 \$1;
#X msg 350 183 7 \$1;
#X msg 405 184 8 \$1;
#X msg 16 171 -99;
#X msg 58 171 -99;
#X msg 97 171 -99;
#X msg 139 171 -99;
#X obj 246 296 s \$0-ctl;
#X obj 301 297 s \$0-ctl;
#X obj 357 297 s \$0-ctl;
#X obj 412 298 s \$0-ctl;
#X msg 15 232 -99;
#X msg 57 232 -99;
#X msg 96 232 -99;
#X msg 138 232 -99;
#X obj 257 425 s \$0-ctl;
#X obj 312 426 s \$0-ctl;
#X obj 368 426 s \$0-ctl;
#X obj 423 427 s \$0-ctl;
#X text 19 152 9;
#X text 61 152 10;
#X text 100 152 11;
#X text 142 152 12;
#X text 18 212 13;
#X text 60 212 14;
#X text 99 212 15;
#X text 141 212 16;
#X msg 246 271 9 \$1;
#X msg 301 272 10 \$1;
#X msg 357 272 11 \$1;
#X msg 412 273 12 \$1;
#X msg 257 400 13 \$1;
#X msg 312 401 14 \$1;
#X msg 368 401 15 \$1;
#X msg 423 402 16 \$1;
#X msg 14 288 -99;
#X msg 56 288 -99;
#X msg 95 288 -99;
#X msg 137 288 -99;
#X obj 258 491 s \$0-ctl;
#X obj 313 492 s \$0-ctl;
#X obj 369 492 s \$0-ctl;
#X obj 424 493 s \$0-ctl;
#X msg 14 344 -99;
#X msg 56 344 -99;
#X msg 95 344 -99;
#X msg 137 344 -99;
#X obj 257 587 s \$0-ctl;
#X obj 312 588 s \$0-ctl;
#X obj 368 588 s \$0-ctl;
#X obj 423 589 s \$0-ctl;
#X text 17 269 17;
#X text 59 269 18;
#X text 98 269 19;
#X text 140 269 20;
#X text 17 325 21;
#X text 59 325 22;
#X text 98 325 23;
#X text 140 325 24;
#X msg 258 466 17 \$1;
#X msg 313 467 18 \$1;
#X msg 369 467 19 \$1;
#X msg 424 468 20 \$1;
#X msg 257 562 21 \$1;
#X msg 312 563 22 \$1;
#X msg 368 563 23 \$1;
#X msg 423 564 24 \$1;
#X floatatom 18 75 5 0 0 0 - - -, f 5;
#X floatatom 60 76 5 0 0 0 - - -, f 5;
#X floatatom 99 76 5 0 0 0 - - -, f 5;
#X floatatom 141 76 5 0 0 0 - - -, f 5;
#X floatatom 17 134 5 0 0 0 - - -, f 5;
#X floatatom 59 135 5 0 0 0 - - -, f 5;
#X floatatom 98 135 5 0 0 0 - - -, f 5;
#X floatatom 140 135 5 0 0 0 - - -, f 5;
#X floatatom 16 192 5 0 0 0 - - -, f 5;
#X floatatom 58 193 5 0 0 0 - - -, f 5;
#X floatatom 97 193 5 0 0 0 - - -, f 5;
#X floatatom 139 193 5 0 0 0 - - -, f 5;
#X floatatom 15 253 5 0 0 0 - - -, f 5;
#X floatatom 57 254 5 0 0 0 - - -, f 5;
#X floatatom 96 254 5 0 0 0 - - -, f 5;
#X floatatom 138 254 5 0 0 0 - - -, f 5;
#X floatatom 14 311 5 0 0 0 - - -, f 5;
#X floatatom 56 312 5 0 0 0 - - -, f 5;
#X floatatom 95 312 5 0 0 0 - - -, f 5;
#X floatatom 137 312 5 0 0 0 - - -, f 5;
#X floatatom 14 366 5 0 0 0 - - -, f 5;
#X floatatom 56 367 5 0 0 0 - - -, f 5;
#X floatatom 95 367 5 0 0 0 - - -, f 5;
#X floatatom 137 367 5 0 0 0 - - -, f 5;
#X obj 286 4 inlet;
#X connect 0 0 8 0;
#X connect 0 0 98 0;
#X connect 2 0 13 0;
#X connect 2 0 99 0;
#X connect 3 0 16 0;
#X connect 3 0 100 0;
#X connect 4 0 17 0;
#X connect 4 0 101 0;
#X connect 8 0 9 0;
#X connect 10 0 11 0;
#X connect 13 0 12 0;
#X connect 16 0 14 0;
#X connect 17 0 15 0;
#X connect 18 0 30 0;
#X connect 18 0 102 0;
#X connect 19 0 31 0;
#X connect 19 0 103 0;
#X connect 20 0 32 0;
#X connect 20 0 104 0;
#X connect 21 0 33 0;
#X connect 21 0 105 0;
#X connect 30 0 22 0;
#X connect 31 0 23 0;
#X connect 32 0 24 0;
#X connect 33 0 25 0;
#X connect 34 0 58 0;
#X connect 34 0 106 0;
#X connect 35 0 59 0;
#X connect 35 0 107 0;
#X connect 36 0 60 0;
#X connect 36 0 108 0;
#X connect 37 0 61 0;
#X connect 37 0 109 0;
#X connect 42 0 62 0;
#X connect 42 0 110 0;
#X connect 43 0 63 0;
#X connect 43 0 111 0;
#X connect 44 0 64 0;
#X connect 44 0 112 0;
#X connect 45 0 65 0;
#X connect 45 0 113 0;
#X connect 58 0 38 0;
#X connect 59 0 39 0;
#X connect 60 0 40 0;
#X connect 61 0 41 0;
#X connect 62 0 46 0;
#X connect 63 0 47 0;
#X connect 64 0 48 0;
#X connect 65 0 49 0;
#X connect 66 0 90 0;
#X connect 66 0 114 0;
#X connect 67 0 91 0;
#X connect 67 0 115 0;
#X connect 68 0 92 0;
#X connect 68 0 116 0;
#X connect 69 0 93 0;
#X connect 69 0 117 0;
#X connect 74 0 94 0;
#X connect 74 0 118 0;
#X connect 75 0 95 0;
#X connect 75 0 119 0;
#X connect 76 0 96 0;
#X connect 76 0 120 0;
#X connect 77 0 97 0;
#X connect 77 0 121 0;
#X connect 90 0 70 0;
#X connect 91 0 71 0;
#X connect 92 0 72 0;
#X connect 93 0 73 0;
#X connect 94 0 78 0;
#X connect 95 0 79 0;
#X connect 96 0 80 0;
#X connect 97 0 81 0;
#X connect 122 0 0 0;
#X connect 122 0 2 0;
#X connect 122 0 3 0;
#X connect 122 0 4 0;
#X connect 122 0 18 0;
#X connect 122 0 19 0;
#X connect 122 0 20 0;
#X connect 122 0 21 0;
#X connect 122 0 34 0;
#X connect 122 0 35 0;
#X connect 122 0 36 0;
#X connect 122 0 37 0;
#X connect 122 0 42 0;
#X connect 122 0 43 0;
#X connect 122 0 44 0;
#X connect 122 0 45 0;
#X connect 122 0 66 0;
#X connect 122 0 67 0;
#X connect 122 0 68 0;
#X connect 122 0 69 0;
#X connect 122 0 74 0;
#X connect 122 0 75 0;
#X connect 122 0 76 0;
#X connect 122 0 77 0;
#X coords 0 -1 1 1 170 375 1 10 25;
#X restore 996 143 pd sound_levels;
#N canvas 0 50 749 623 sound_levels 0;
#X msg 18 53 -99;
#X text 21 35 1;
#X msg 60 53 -99;
#X msg 99 53 -99;
#X msg 141 53 -99;
#X text 63 35 2;
#X text 102 35 3;
#X text 144 35 4;
#X msg 243 97 1 \$1;
#X obj 243 122 s \$0-ctl;
#X obj 372 339 r \$0-ctl;
#X obj 372 363 outlet;
#X obj 298 123 s \$0-ctl;
#X msg 298 98 2 \$1;
#X obj 354 123 s \$0-ctl;
#X obj 409 124 s \$0-ctl;
#X msg 354 98 3 \$1;
#X msg 409 99 4 \$1;
#X msg 17 112 -99;
#X msg 59 112 -99;
#X msg 98 112 -99;
#X msg 140 112 -99;
#X obj 239 207 s \$0-ctl;
#X obj 294 208 s \$0-ctl;
#X obj 350 208 s \$0-ctl;
#X obj 405 209 s \$0-ctl;
#X text 20 93 5;
#X text 62 93 6;
#X text 101 93 7;
#X text 143 93 8;
#X msg 239 182 5 \$1;
#X msg 294 183 6 \$1;
#X msg 350 183 7 \$1;
#X msg 405 184 8 \$1;
#X msg 16 171 -99;
#X msg 58 171 -99;
#X msg 97 171 -99;
#X msg 139 171 -99;
#X obj 246 296 s \$0-ctl;
#X obj 301 297 s \$0-ctl;
#X obj 357 297 s \$0-ctl;
#X obj 412 298 s \$0-ctl;
#X msg 15 232 -99;
#X msg 57 232 -99;
#X msg 96 232 -99;
#X msg 138 232 -99;
#X obj 257 425 s \$0-ctl;
#X obj 312 426 s \$0-ctl;
#X obj 368 426 s \$0-ctl;
#X obj 423 427 s \$0-ctl;
#X text 19 152 9;
#X text 61 152 10;
#X text 100 152 11;
#X text 142 152 12;
#X text 18 212 13;
#X text 60 212 14;
#X text 99 212 15;
#X text 141 212 16;
#X msg 246 271 9 \$1;
#X msg 301 272 10 \$1;
#X msg 357 272 11 \$1;
#X msg 412 273 12 \$1;
#X msg 257 400 13 \$1;
#X msg 312 401 14 \$1;
#X msg 368 401 15 \$1;
#X msg 423 402 16 \$1;
#X msg 14 288 -99;
#X msg 56 288 -99;
#X msg 95 288 -99;
#X msg 137 288 -99;
#X obj 258 491 s \$0-ctl;
#X obj 313 492 s \$0-ctl;
#X obj 369 492 s \$0-ctl;
#X obj 424 493 s \$0-ctl;
#X msg 14 344 -99;
#X msg 56 344 -99;
#X msg 95 344 -99;
#X msg 137 344 -99;
#X obj 257 587 s \$0-ctl;
#X obj 312 588 s \$0-ctl;
#X obj 368 588 s \$0-ctl;
#X obj 423 589 s \$0-ctl;
#X text 17 269 17;
#X text 59 269 18;
#X text 98 269 19;
#X text 140 269 20;
#X text 17 325 21;
#X text 59 325 22;
#X text 98 325 23;
#X text 140 325 24;
#X msg 258 466 17 \$1;
#X msg 313 467 18 \$1;
#X msg 369 467 19 \$1;
#X msg 424 468 20 \$1;
#X msg 257 562 21 \$1;
#X msg 312 563 22 \$1;
#X msg 368 563 23 \$1;
#X msg 423 564 24 \$1;
#X floatatom 18 75 5 0 0 0 - - -, f 5;
#X floatatom 60 76 5 0 0 0 - - -, f 5;
#X floatatom 99 76 5 0 0 0 - - -, f 5;
#X floatatom 141 76 5 0 0 0 - - -, f 5;
#X floatatom 17 134 5 0 0 0 - - -, f 5;
#X floatatom 59 135 5 0 0 0 - - -, f 5;
#X floatatom 98 135 5 0 0 0 - - -, f 5;
#X floatatom 140 135 5 0 0 0 - - -, f 5;
#X floatatom 16 192 5 0 0 0 - - -, f 5;
#X floatatom 58 193 5 0 0 0 - - -, f 5;
#X floatatom 97 193 5 0 0 0 - - -, f 5;
#X floatatom 139 193 5 0 0 0 - - -, f 5;
#X floatatom 15 253 5 0 0 0 - - -, f 5;
#X floatatom 57 254 5 0 0 0 - - -, f 5;
#X floatatom 96 254 5 0 0 0 - - -, f 5;
#X floatatom 138 254 5 0 0 0 - - -, f 5;
#X floatatom 14 311 5 0 0 0 - - -, f 5;
#X floatatom 56 312 5 0 0 0 - - -, f 5;
#X floatatom 95 312 5 0 0 0 - - -, f 5;
#X floatatom 137 312 5 0 0 0 - - -, f 5;
#X floatatom 14 366 5 0 0 0 - - -, f 5;
#X floatatom 56 367 5 0 0 0 - - -, f 5;
#X floatatom 95 367 5 0 0 0 - - -, f 5;
#X floatatom 137 367 5 0 0 0 - - -, f 5;
#X obj 286 4 inlet;
#X connect 0 0 8 0;
#X connect 0 0 98 0;
#X connect 2 0 13 0;
#X connect 2 0 99 0;
#X connect 3 0 16 0;
#X connect 3 0 100 0;
#X connect 4 0 17 0;
#X connect 4 0 101 0;
#X connect 8 0 9 0;
#X connect 10 0 11 0;
#X connect 13 0 12 0;
#X connect 16 0 14 0;
#X connect 17 0 15 0;
#X connect 18 0 30 0;
#X connect 18 0 102 0;
#X connect 19 0 31 0;
#X connect 19 0 103 0;
#X connect 20 0 32 0;
#X connect 20 0 104 0;
#X connect 21 0 33 0;
#X connect 21 0 105 0;
#X connect 30 0 22 0;
#X connect 31 0 23 0;
#X connect 32 0 24 0;
#X connect 33 0 25 0;
#X connect 34 0 58 0;
#X connect 34 0 106 0;
#X connect 35 0 59 0;
#X connect 35 0 107 0;
#X connect 36 0 60 0;
#X connect 36 0 108 0;
#X connect 37 0 61 0;
#X connect 37 0 109 0;
#X connect 42 0 62 0;
#X connect 42 0 110 0;
#X connect 43 0 63 0;
#X connect 43 0 111 0;
#X connect 44 0 64 0;
#X connect 44 0 112 0;
#X connect 45 0 65 0;
#X connect 45 0 113 0;
#X connect 58 0 38 0;
#X connect 59 0 39 0;
#X connect 60 0 40 0;
#X connect 61 0 41 0;
#X connect 62 0 46 0;
#X connect 63 0 47 0;
#X connect 64 0 48 0;
#X connect 65 0 49 0;
#X connect 66 0 90 0;
#X connect 66 0 114 0;
#X connect 67 0 91 0;
#X connect 67 0 115 0;
#X connect 68 0 92 0;
#X connect 68 0 116 0;
#X connect 69 0 93 0;
#X connect 69 0 117 0;
#X connect 74 0 94 0;
#X connect 74 0 118 0;
#X connect 75 0 95 0;
#X connect 75 0 119 0;
#X connect 76 0 96 0;
#X connect 76 0 120 0;
#X connect 77 0 97 0;
#X connect 77 0 121 0;
#X connect 90 0 70 0;
#X connect 91 0 71 0;
#X connect 92 0 72 0;
#X connect 93 0 73 0;
#X connect 94 0 78 0;
#X connect 95 0 79 0;
#X connect 96 0 80 0;
#X connect 97 0 81 0;
#X connect 122 0 0 0;
#X connect 122 0 2 0;
#X connect 122 0 3 0;
#X connect 122 0 4 0;
#X connect 122 0 18 0;
#X connect 122 0 19 0;
#X connect 122 0 20 0;
#X connect 122 0 21 0;
#X connect 122 0 34 0;
#X connect 122 0 35 0;
#X connect 122 0 36 0;
#X connect 122 0 37 0;
#X connect 122 0 42 0;
#X connect 122 0 43 0;
#X connect 122 0 44 0;
#X connect 122 0 45 0;
#X connect 122 0 66 0;
#X connect 122 0 67 0;
#X connect 122 0 68 0;
#X connect 122 0 69 0;
#X connect 122 0 74 0;
#X connect 122 0 75 0;
#X connect 122 0 76 0;
#X connect 122 0 77 0;
#X coords 0 -1 1 1 170 375 1 10 25;
#X restore 1190 146 pd sound_levels;
#N canvas 0 50 749 623 sound_levels 0;
#X msg 18 53 -99;
#X text 21 35 1;
#X msg 60 53 -99;
#X msg 99 53 -99;
#X msg 141 53 -99;
#X text 63 35 2;
#X text 102 35 3;
#X text 144 35 4;
#X msg 243 97 1 \$1;
#X obj 243 122 s \$0-ctl;
#X obj 372 339 r \$0-ctl;
#X obj 372 363 outlet;
#X obj 298 123 s \$0-ctl;
#X msg 298 98 2 \$1;
#X obj 354 123 s \$0-ctl;
#X obj 409 124 s \$0-ctl;
#X msg 354 98 3 \$1;
#X msg 409 99 4 \$1;
#X msg 17 112 -99;
#X msg 59 112 -99;
#X msg 98 112 -99;
#X msg 140 112 -99;
#X obj 239 207 s \$0-ctl;
#X obj 294 208 s \$0-ctl;
#X obj 350 208 s \$0-ctl;
#X obj 405 209 s \$0-ctl;
#X text 20 93 5;
#X text 62 93 6;
#X text 101 93 7;
#X text 143 93 8;
#X msg 239 182 5 \$1;
#X msg 294 183 6 \$1;
#X msg 350 183 7 \$1;
#X msg 405 184 8 \$1;
#X msg 16 171 -99;
#X msg 58 171 -99;
#X msg 97 171 -99;
#X msg 139 171 -99;
#X obj 246 296 s \$0-ctl;
#X obj 301 297 s \$0-ctl;
#X obj 357 297 s \$0-ctl;
#X obj 412 298 s \$0-ctl;
#X msg 15 232 -99;
#X msg 57 232 -99;
#X msg 96 232 -99;
#X msg 138 232 -99;
#X obj 257 425 s \$0-ctl;
#X obj 312 426 s \$0-ctl;
#X obj 368 426 s \$0-ctl;
#X obj 423 427 s \$0-ctl;
#X text 19 152 9;
#X text 61 152 10;
#X text 100 152 11;
#X text 142 152 12;
#X text 18 212 13;
#X text 60 212 14;
#X text 99 212 15;
#X text 141 212 16;
#X msg 246 271 9 \$1;
#X msg 301 272 10 \$1;
#X msg 357 272 11 \$1;
#X msg 412 273 12 \$1;
#X msg 257 400 13 \$1;
#X msg 312 401 14 \$1;
#X msg 368 401 15 \$1;
#X msg 423 402 16 \$1;
#X msg 14 288 -99;
#X msg 56 288 -99;
#X msg 95 288 -99;
#X msg 137 288 -99;
#X obj 258 491 s \$0-ctl;
#X obj 313 492 s \$0-ctl;
#X obj 369 492 s \$0-ctl;
#X obj 424 493 s \$0-ctl;
#X msg 14 344 -99;
#X msg 56 344 -99;
#X msg 95 344 -99;
#X msg 137 344 -99;
#X obj 257 587 s \$0-ctl;
#X obj 312 588 s \$0-ctl;
#X obj 368 588 s \$0-ctl;
#X obj 423 589 s \$0-ctl;
#X text 17 269 17;
#X text 59 269 18;
#X text 98 269 19;
#X text 140 269 20;
#X text 17 325 21;
#X text 59 325 22;
#X text 98 325 23;
#X text 140 325 24;
#X msg 258 466 17 \$1;
#X msg 313 467 18 \$1;
#X msg 369 467 19 \$1;
#X msg 424 468 20 \$1;
#X msg 257 562 21 \$1;
#X msg 312 563 22 \$1;
#X msg 368 563 23 \$1;
#X msg 423 564 24 \$1;
#X floatatom 18 75 5 0 0 0 - - -, f 5;
#X floatatom 60 76 5 0 0 0 - - -, f 5;
#X floatatom 99 76 5 0 0 0 - - -, f 5;
#X floatatom 141 76 5 0 0 0 - - -, f 5;
#X floatatom 17 134 5 0 0 0 - - -, f 5;
#X floatatom 59 135 5 0 0 0 - - -, f 5;
#X floatatom 98 135 5 0 0 0 - - -, f 5;
#X floatatom 140 135 5 0 0 0 - - -, f 5;
#X floatatom 16 192 5 0 0 0 - - -, f 5;
#X floatatom 58 193 5 0 0 0 - - -, f 5;
#X floatatom 97 193 5 0 0 0 - - -, f 5;
#X floatatom 139 193 5 0 0 0 - - -, f 5;
#X floatatom 15 253 5 0 0 0 - - -, f 5;
#X floatatom 57 254 5 0 0 0 - - -, f 5;
#X floatatom 96 254 5 0 0 0 - - -, f 5;
#X floatatom 138 254 5 0 0 0 - - -, f 5;
#X floatatom 14 311 5 0 0 0 - - -, f 5;
#X floatatom 56 312 5 0 0 0 - - -, f 5;
#X floatatom 95 312 5 0 0 0 - - -, f 5;
#X floatatom 137 312 5 0 0 0 - - -, f 5;
#X floatatom 14 366 5 0 0 0 - - -, f 5;
#X floatatom 56 367 5 0 0 0 - - -, f 5;
#X floatatom 95 367 5 0 0 0 - - -, f 5;
#X floatatom 137 367 5 0 0 0 - - -, f 5;
#X obj 286 4 inlet;
#X connect 0 0 8 0;
#X connect 0 0 98 0;
#X connect 2 0 13 0;
#X connect 2 0 99 0;
#X connect 3 0 16 0;
#X connect 3 0 100 0;
#X connect 4 0 17 0;
#X connect 4 0 101 0;
#X connect 8 0 9 0;
#X connect 10 0 11 0;
#X connect 13 0 12 0;
#X connect 16 0 14 0;
#X connect 17 0 15 0;
#X connect 18 0 30 0;
#X connect 18 0 102 0;
#X connect 19 0 31 0;
#X connect 19 0 103 0;
#X connect 20 0 32 0;
#X connect 20 0 104 0;
#X connect 21 0 33 0;
#X connect 21 0 105 0;
#X connect 30 0 22 0;
#X connect 31 0 23 0;
#X connect 32 0 24 0;
#X connect 33 0 25 0;
#X connect 34 0 58 0;
#X connect 34 0 106 0;
#X connect 35 0 59 0;
#X connect 35 0 107 0;
#X connect 36 0 60 0;
#X connect 36 0 108 0;
#X connect 37 0 61 0;
#X connect 37 0 109 0;
#X connect 42 0 62 0;
#X connect 42 0 110 0;
#X connect 43 0 63 0;
#X connect 43 0 111 0;
#X connect 44 0 64 0;
#X connect 44 0 112 0;
#X connect 45 0 65 0;
#X connect 45 0 113 0;
#X connect 58 0 38 0;
#X connect 59 0 39 0;
#X connect 60 0 40 0;
#X connect 61 0 41 0;
#X connect 62 0 46 0;
#X connect 63 0 47 0;
#X connect 64 0 48 0;
#X connect 65 0 49 0;
#X connect 66 0 90 0;
#X connect 66 0 114 0;
#X connect 67 0 91 0;
#X connect 67 0 115 0;
#X connect 68 0 92 0;
#X connect 68 0 116 0;
#X connect 69 0 93 0;
#X connect 69 0 117 0;
#X connect 74 0 94 0;
#X connect 74 0 118 0;
#X connect 75 0 95 0;
#X connect 75 0 119 0;
#X connect 76 0 96 0;
#X connect 76 0 120 0;
#X connect 77 0 97 0;
#X connect 77 0 121 0;
#X connect 90 0 70 0;
#X connect 91 0 71 0;
#X connect 92 0 72 0;
#X connect 93 0 73 0;
#X connect 94 0 78 0;
#X connect 95 0 79 0;
#X connect 96 0 80 0;
#X connect 97 0 81 0;
#X connect 122 0 0 0;
#X connect 122 0 2 0;
#X connect 122 0 3 0;
#X connect 122 0 4 0;
#X connect 122 0 18 0;
#X connect 122 0 19 0;
#X connect 122 0 20 0;
#X connect 122 0 21 0;
#X connect 122 0 34 0;
#X connect 122 0 35 0;
#X connect 122 0 36 0;
#X connect 122 0 37 0;
#X connect 122 0 42 0;
#X connect 122 0 43 0;
#X connect 122 0 44 0;
#X connect 122 0 45 0;
#X connect 122 0 66 0;
#X connect 122 0 67 0;
#X connect 122 0 68 0;
#X connect 122 0 69 0;
#X connect 122 0 74 0;
#X connect 122 0 75 0;
#X connect 122 0 76 0;
#X connect 122 0 77 0;
#X coords 0 -1 1 1 170 375 1 10 25;
#X restore 1384 143 pd sound_levels;
#X text 801 109 sound 5;
#X text 995 106 sound 6;
#X obj 802 539 s sound_5_ctl;
#X obj 996 536 s sound_6_ctl;
#X text 1189 109 sound 7;
#X text 1383 106 sound 8;
#X obj 1190 539 s sound_7_ctl;
#X obj 1384 537 s sound_8_ctl;
#X connect 1 0 3 0;
#X connect 4 0 5 0;
#X connect 7 0 1 0;
#X connect 7 0 4 0;
#X connect 7 0 9 0;
#X connect 7 0 10 0;
#X connect 7 0 15 0;
#X connect 7 0 16 0;
#X connect 7 0 17 0;
#X connect 7 0 18 0;
#X connect 8 0 7 0;
#X connect 9 0 13 0;
#X connect 10 0 14 0;
#X connect 15 0 21 0;
#X connect 16 0 22 0;
#X connect 17 0 25 0;
#X connect 18 0 26 0;
