#N canvas 307 151 450 300 10;
#X obj 115 46 bng 30 250 50 0 empty empty start 0 -7 0 10 -4034 -1
-1;
#X obj 114 149 s start_all;
#X obj 200 46 bng 30 250 50 0 empty empty stop 0 -7 0 10 -260097 -1
-1;
#X obj 200 148 s stop_all;
#X obj 38 149 s load_all;
#X obj 114 88 t b b;
#X obj 114 125 delay 10;
#X msg 355 85 \; pd dsp 1;
#X obj 305 17 loadbang;
#X obj 305 42 t b b;
#X obj 288 88 s start;
#X connect 0 0 5 0;
#X connect 2 0 3 0;
#X connect 5 0 6 0;
#X connect 5 1 4 0;
#X connect 6 0 1 0;
#X connect 8 0 9 0;
#X connect 9 0 0 0;
#X connect 9 0 10 0;
#X connect 9 1 7 0;
#X coords 0 -1 1 1 160 55 2 100 30;
